<?xml version="1.0" encoding="utf-8"?>
<!-- Generator: Adobe Illustrator 27.8.1, SVG Export Plug-In . SVG Version: 6.00 Build 0)  -->
<svg version="1.1" id="Layer_1" xmlns="http://www.w3.org/2000/svg" xmlns:xlink="http://www.w3.org/1999/xlink" x="0px" y="0px"
	 viewBox="0 0 512 512" style="enable-background:new 0 0 512 512;" xml:space="preserve">
<path d="M455,293.8l39.5-173.6c2.8-12.5-6.7-24.5-19.5-24.5H147.1l-7.7-37.4c-1.9-9.3-10.1-16-19.6-16H34.2c-11.1,0-20,9-20,20v13.4
	c0,11.1,9,20,20,20h58.3l58.6,286.7c-14,8.1-23.5,23.2-23.5,40.5c0,25.8,20.9,46.7,46.7,46.7s46.7-20.9,46.7-46.7
	c0-13.1-5.4-24.9-14-33.4h175c-8.7,8.5-14,20.3-14,33.4c0,25.8,20.9,46.7,46.7,46.7c25.8,0,46.7-20.9,46.7-46.7
	c0-18.5-10.8-34.5-26.4-42.1l4.6-20.3c2.8-12.5-6.7-24.5-19.5-24.5H196.3l-5.5-26.7h244.7C444.9,309.4,453,303,455,293.8z"/>
</svg>
