<?xml version="1.0" encoding="utf-8"?>
<!-- Generator: Adobe Illustrator 24.0.0, SVG Export Plug-In . SVG Version: 6.00 Build 0)  -->
<svg version="1.1" id="Layer_1" xmlns="http://www.w3.org/2000/svg" xmlns:xlink="http://www.w3.org/1999/xlink" x="0px" y="0px"
	 viewBox="0 0 72 72" style="enable-background:new 0 0 72 72;" xml:space="preserve">
<g>
	<path d="M71.8,45.2c-0.6-3.5-2.4-6.3-5.3-8.4c-0.4-0.3-0.6-0.5-0.5-1.1c0.5-2.5,0.5-5.1-0.1-7.6c-1.7-8.4-9.2-15.2-17.6-15.8
		c-6.8-0.5-12.4,1.8-16.9,6.9c-0.4,0.4-0.6,0.5-1.2,0.3c-4.3-1.4-8.5-1.2-12.5,0.9c-5.5,2.9-8.8,7.5-9.4,13.8
		c-0.1,0.6-0.3,0.9-0.8,1.1C5.8,36,4.3,37,3,38.4c-3,3.1-4.3,6.8-3.4,11.1c1.3,6.1,7,10.5,13.5,10.5c7.5,0,15,0,22.5,0
		c3.7,0,7.5,0,11.2,0c3.7,0,7.5,0,11.2,0c4.3,0,7.8-1.6,10.7-4.7C71.3,52.4,72.5,49.1,71.8,45.2z"/>
</g>
</svg>
