<?xml version="1.0" encoding="utf-8"?>
<!-- Generator: Adobe Illustrator 24.0.0, SVG Export Plug-In . SVG Version: 6.00 Build 0)  -->
<svg version="1.1" id="Layer_1" xmlns="http://www.w3.org/2000/svg" xmlns:xlink="http://www.w3.org/1999/xlink" x="0px" y="0px"
	 viewBox="0 0 72 72" style="enable-background:new 0 0 72 72;" xml:space="preserve">
<g>
	<g>
		<path d="M51,21c0.5,0,1.1,0.1,1.6,0.1c4.6,0,9.2,0.1,13.8,0c1.6,0,2.8,0.4,3.4,1.9c0,3.9,0,7.7,0,11.6c-0.7,1.4-1.8,1.9-3.4,1.9
			c-8.7-0.1-17.4,0-26.3,0c0-5,0-10,0-15.3c0.8,0,1.6,0.1,2.5,0"/>
		<path d="M28.5,21c0.8,0.1,1.7,0,2.6,0c0,5.1,0,10.1,0,15.3c-0.6,0-1.1,0-1.6,0c-8.3,0-16.6,0-24.9,0c-2.4,0-3.2-0.8-3.3-3.3
			c0-3,0-6,0-9c0-2.1,0.9-3,2.9-3c5.3,0,10.5,0,16,0"/>
		<path d="M38.2,20.8c-1.7,0-3.3,0-5.1,0"/>
		<path d="M6.6,41.6c8.3,0,16.3,0,24.5,0c0,10.2,0,20.3,0,30.5c-0.3,0-0.7,0.1-1,0.1c-6.9,0-13.8,0-20.7,0c-1.9,0-2.9-0.8-2.9-2.5
			C6.5,60.3,6.6,51,6.6,41.6z"/>
		<path d="M40.1,41.6c8.2,0,16.3,0,24.6,0c0,0.6,0,1,0,1.5c0,8.6,0,17.2,0,25.8c0,2.5-0.8,3.3-3.2,3.3c-6.6,0-13.3,0-19.9,0
			c-0.4,0-0.9,0-1.4,0C40.1,61.9,40.1,51.8,40.1,41.6z"/>
	</g>
	<path d="M44.1,22.4c-0.6,0-1.1,0-1.7-0.1L35,21.9l0.3-3.1c0.1-0.7,1.7-17,15.1-18.8l0.1,0c0.7-0.1,7.3-0.5,10.3,3.6
		c1.2,1.6,2.2,4.5,0.3,9L60.9,13C60.7,13.4,55.4,22.4,44.1,22.4z M41.8,16.3l0.9,0c8.2,0.7,12.3-5.2,12.9-6.3c0.6-1.4,0.7-2.5,0.3-3
		c-0.7-0.9-3.3-1.3-4.9-1.1C45.3,6.8,42.8,12.6,41.8,16.3z"/>
	<path d="M28.4,22.4c-11.3,0-16.6-9.1-16.8-9.5l-0.2-0.3c-1.9-4.5-0.9-7.4,0.3-9C14.8-0.5,21.3,0,22,0l0.1,0
		c13.4,1.8,15,18.1,15.1,18.8l0.3,3.1l-7.4,0.4C29.6,22.4,29,22.4,28.4,22.4z M16.9,10.1c0.6,1,4.7,6.9,12.8,6.3l1-0.1
		c-1-3.7-3.4-9.5-9.3-10.3c-1.6-0.1-4.2,0.2-4.9,1.1C16.2,7.6,16.4,8.7,16.9,10.1z"/>
</g>
</svg>
