<?xml version="1.0" encoding="utf-8"?>
<!-- Generator: Adobe Illustrator 24.0.0, SVG Export Plug-In . SVG Version: 6.00 Build 0)  -->
<svg version="1.1" id="Layer_1" xmlns="http://www.w3.org/2000/svg" xmlns:xlink="http://www.w3.org/1999/xlink" x="0px" y="0px"
	 viewBox="0 0 72 72" style="enable-background:new 0 0 72 72;" xml:space="preserve">
<style type="text/css">
	.st0{fill-rule:evenodd;clip-rule:evenodd;fill:#010101;}
</style>
<g id="gps_1_">
	<path class="st0" d="M35.6,1C20.7,1,8.7,13,8.7,27.9c0,12.2,18,35.1,24.6,43c1.3,1.5,3.4,1.5,4.7,0c6.5-7.9,24.6-30.9,24.6-43
		C62.5,13,50.5,1,35.6,1z M35.6,38.1c-6,0-10.9-4.9-10.9-10.9c0-6,4.9-10.9,10.9-10.9c6,0,10.9,4.9,10.9,10.9
		C46.5,33.2,41.6,38.1,35.6,38.1z"/>
</g>
</svg>
