<?xml version="1.0" encoding="utf-8"?>
<!-- Generator: Adobe Illustrator 24.0.0, SVG Export Plug-In . SVG Version: 6.00 Build 0)  -->
<svg version="1.1" id="Layer_1" xmlns="http://www.w3.org/2000/svg" xmlns:xlink="http://www.w3.org/1999/xlink" x="0px" y="0px"
	 viewBox="0 0 72 72" style="enable-background:new 0 0 72 72;" xml:space="preserve">
<path d="M72,19.7c0-0.6-0.5-1.1-1.1-1.1c-0.2,0-0.4,0-0.6,0.2l-17,8.5v-9.9c0-1.9-1.5-3.4-3.4-3.4H19.8c-5.5,0-11,0-16.5,0
	c-0.4,0-0.8,0.1-1.2,0.3C0.9,14.6,0,16,0,17.4c0,0.7,0,1.5,0,2.2v1l0,23.3l0,10.7c0,1,0.3,1.8,1,2.5c0.6,0.6,1.5,1,2.5,1h46.5
	c2,0,3.4-1.5,3.4-3.4v-7.4c0-0.1,0-0.2,0-0.3l0.1-1.9l1.6,0.7c0,0,0.2,0.1,0.3,0.1l7.6,3.8c2.4,1.2,4.9,2.4,7.3,3.7
	c0.2,0.1,0.4,0.2,0.6,0.2c0.6,0,1-0.5,1-1.2L72,23C72,21.9,72,20.8,72,19.7z M43.8,24.4c-0.1,0.9-0.7,1.6-1.2,1.6l-16.5,0
	c-0.4,0-0.8-0.3-1.1-0.9c-0.2-0.6-0.3-1.3-0.2-2c0.2-0.8,0.7-1.4,1.3-1.4l13.1,0l3.3,0c0.4,0,0.8,0.3,1.1,0.8
	C43.8,23,43.9,23.7,43.8,24.4z"/>
</svg>
