<?xml version="1.0" encoding="UTF-8"?>
<svg xmlns="http://www.w3.org/2000/svg" version="1.1" viewBox="0 0 1500 514.3">
  <!-- Generator: Adobe Illustrator 28.6.0, SVG Export Plug-In . SVG Version: 1.2.0 Build 709)  -->
  <g>
    <g id="Layer_1">
      <path d="M37.1,294.3c-20.5,0-37.1-16.6-37.1-37.1s16.6-37.1,37.1-37.1h1336.1l-156.7-156.7c-14.5-14.5-14.5-38,0-52.5,14.5-14.5,38-14.5,52.5,0l219.7,219.7c1.2,1.2,2.4,2.5,3.4,3.8v.2c.1,0,.5.5.5.5l.2.2.9,1.3v.2c.1,0,.5.6.5.6h0s.4.6.4.6l.2.4v.3c.1,0,.4.5.4.5l.2.3.2.4.3.7h0c2.5,5.1,3.8,10.8,3.8,16.5,0,5.9-1.4,11.5-3.8,16.4h0s-.3.7-.3.7l-.2.4-.2.3-.3.5v.3c-.1,0-.4.4-.4.4l-.4.6h0s-.4.6-.4.6v.2c-.4.4-.7.9-1.1,1.3l-.2.2-.4.5v.2c-1.2,1.3-2.3,2.6-3.5,3.8l-219.7,219.7c-14.5,14.5-38,14.5-52.5,0-14.5-14.5-14.5-38,0-52.5l156.7-156.7H37.1"/>
    </g>
  </g>
</svg>