<?xml version="1.0" encoding="utf-8"?>
<!-- Generator: Adobe Illustrator 28.2.0, SVG Export Plug-In . SVG Version: 6.00 Build 0)  -->
<svg version="1.1" id="Layer_1" xmlns="http://www.w3.org/2000/svg" xmlns:xlink="http://www.w3.org/1999/xlink" x="0px" y="0px"
	 viewBox="0 0 200 200" style="enable-background:new 0 0 200 200;" xml:space="preserve">
<style type="text/css">
	.st0{fill:#333333;}
	.st1{fill:none;stroke:#333333;stroke-width:2.0653;stroke-miterlimit:10;}
</style>
<g>
	<path class="st0" d="M61.5,133.1c-7,1.4-15.7-0.6-23.5-6c-5.8-4.1-10.7-10.9-14.9-22.5c-0.8-2.3-1.4-4.5-2.1-7h-6.4v41.1h6l0.2-1
		l0.2-0.8l0.2-0.8l0.8-1.4c2.1-3.9,3.3-4.1,9.7-1.2c1.7,0.8,3.3,1.4,4.8,2.1c9.9,3.5,18.4,5,26.2,4.5l4.1-9.1
		C65.2,132.1,63.5,132.7,61.5,133.1z"/>
	<path class="st0" d="M67.5,72.2c-2.5-1-4.8-2.1-7.6-2.7c-18-5.6-23.1-9.9-24.2-16.1c-2.1-10.3,4.5-17.1,17.1-15.9
		c12.2,1,22.7,9.5,29.5,26.2c0.6,1.4,1,2.7,1.4,3.9h6.8V32.2h-6L84.4,33L84,33.6v0.2l-0.8,1.4c-1.9,3.1-3.5,3.9-6,2.9l-0.8-0.4
		l-3.5-1.7c-1.7-0.8-3.3-1.4-4.8-2.1c-15.1-5-27.7-4.8-38.2-0.2c-17.6,7.6-23.8,29.1-12,44.6c4.3,6,9.7,9.5,22.9,14.9
		c2.3,1,4.8,2.1,7,2.7c16.7,5.4,21.9,9.1,26,15.7c0.4,0.8,0.6,1.4,1,2.3l13.4-29.1c-1-1-1.9-2.1-2.9-2.9
		C81.5,78.4,77.6,76.1,67.5,72.2z"/>
</g>
<g>
	<path class="st0" d="M107.1,159.4l16.7-49.4l15.1,49.4h12.8l26-76.8l0.2-0.8l0.4-0.8c0.8-2.5,2.3-3.5,4.5-4.1l1.2-0.4h0.2h7V72
		h-31.6v4.1h7c0.2,0,0.4,0,1.4,0.4c2.1,0.8,2.9,2.1,2.3,4.1l-0.2,1.4l-0.2,0.4l-16.7,49.8l-14-49.8v-0.2l-0.4-1.7
		c-0.6-2.3,0.2-3.5,2.5-4.1c1-0.4,1.2-0.4,1.4-0.4h6.8v-4.3h-44.2v4.3h7l0.2,0.4l0.6,0.8l0.2,0.6c0.2,0.6,0.6,1.4,1,3.1l0.4,1.7
		l4.8,15.9L108,132.7L96.2,90l-14.3,31l11.6,38.4H107.1z"/>
</g>
<line class="st1" x1="120.1" y1="28.4" x2="53.4" y2="171.6"/>
</svg>
