<svg hidden data-icons>


  <symbol id="icon:sw" viewBox="0 0 89.5 71.7">
  <path d="m25.3 55.9 2.1-4.5c-.8.5-1.7.8-2.7 1-3.5.7-7.8-.3-11.7-3-2.9-2.1-5.4-5.5-7.4-11.2-.4-1.1-.7-2.3-1-3.5H1.3v20.5h3l.1-.5.1-.4.1-.4.4-.7c1-2 1.6-2.1 4.8-.6.8.4 1.6.7 2.4 1 4.9 1.8 9.2 2.5 13.1 2.3zM14.4 32.5c1.1.5 2.4 1 3.5 1.3 8.3 2.7 10.9 4.5 13 7.8.2.4.3.7.5 1.1l6.7-14.5c-.5-.5-.9-1-1.4-1.4-2-1.7-3.9-2.8-9-4.8-1.2-.5-2.4-1-3.8-1.3-9-2.8-11.5-4.9-12.1-8-1-5.2 2.3-8.5 8.6-7.9 6.1.5 11.3 4.7 14.7 13.1.3.7.5 1.3.7 2h3.4V2h-3l-.1.4-.2.3v.1l-.4.7c-.9 1.5-1.8 2-3 1.4l-.4-.2-1.8-.8c-.8-.4-1.6-.7-2.4-1C20.5.5 14.2.6 8.9 2.8.2 6.6-2.9 17.4 3 25.1c2.2 3 4.8 4.7 11.4 7.4zM73.7 21.9V24h3.5c.1 0 .2 0 .7.2 1 .4 1.4 1 1.1 2.1l-.1.7-.1.2L70.5 52l-7-24.8v-.1l-.2-.8c-.3-1.1.1-1.8 1.2-2.1.5-.2.6-.2.7-.2h3.5v-2.2h-22V24h3.5l.1.2.3.4.1.3c.1.3.3.7.5 1.5l.2.8 2.4 7.9-5.9 17L42 30.9l-7.1 15.4 5.8 19.2h6.8l8.3-24.6 7.5 24.6h6.4l13-38.3.1-.4.2-.4c.4-1.2 1.1-1.7 2.3-2.1l.6-.2h3.6v-2.2H73.7zM54.2.1l-.8-.4-32.9 71.7-.1.2.8.4L54.1.3z"/>
  </symbol>

  <symbol id="icon:arrow-left" viewBox="0 0 115.6 24.5">
    <path fill="#14161a" d="m102.4 0-2.1 2.2 9.3 8.6H0v3h109.6l-9.3 8.5 2.1 2.2 13.2-12.2z"/>
  </symbol>

  <symbol id="icon:arrow-right" viewBox="0 0 115.6 24.5">
    <path fill="#14161a" d="m13.2 24.5 2.1-2.2L6 13.7h109.6v-3H6l9.3-8.5L13.2 0 0 12.2z"/>
  </symbol>

   <symbol id="icon:cart"  viewBox="0 0 576 512">
  <path d="M504.7 320H211.6l6.5 32h268.4a24 24 0 0 1 23.4 29.3l-5.5 24.3A56 56 0 0 1 479.2 512c-29.8-.4-54.4-24.6-55.2-54.4-.4-16.3 6.1-31 16.8-41.5H231.2a55.72 55.72 0 0 1 16.8 40c0 31.8-26.5 57.4-58.7 55.9-28.5-1.3-51.8-24.4-53.3-52.9a55.8 55.8 0 0 1 28.1-51.6L93.9 64H24C10.7 64 0 53.3 0 40V24C0 10.7 10.7 0 24 0h102.5c11.4 0 21.2 8 23.5 19.2l9.2 44.8H552a24 24 0 0 1 23.4 29.3l-47.3 208a24.06 24.06 0 0 1-23.4 18.7z"/>
 </symbol>


  <!-- social -->

  <symbol id="icon:facebook" viewBox="0 0 264 512">
    <path d="M215.8 85H264V3.6C255.7 2.5 227.1 0 193.8 0 124.3 0 76.7 42.4 76.7 120.3V192H0v91h76.7v229h94V283h73.6l11.7-91h-85.3v-62.7c0-26.3 7.3-44.3 45.1-44.3z"/>
  </symbol>


  <symbol id="icon:instagram" viewBox="0 0 448 512">
  <path d="M224.1 141c-63.6 0-114.9 51.3-114.9 114.9s51.3 114.9 114.9 114.9S339 319.5 339 255.9 287.7 141 224.1 141zm0 189.6c-41.1 0-74.7-33.5-74.7-74.7s33.5-74.7 74.7-74.7 74.7 33.5 74.7 74.7-33.6 74.7-74.7 74.7zm146.4-194.3c0 14.9-12 26.8-26.8 26.8a26.8 26.8 0 1 1 26.8-26.8zm76.1 27.2c-1.7-35.9-9.9-67.7-36.2-93.9-26.2-26.2-58-34.4-93.9-36.2-37-2.1-147.9-2.1-184.9 0-35.8 1.7-67.6 9.9-93.9 36.1s-34.4 58-36.2 93.9c-2.1 37-2.1 147.9 0 184.9 1.7 35.9 9.9 67.7 36.2 93.9s58 34.4 93.9 36.2c37 2.1 147.9 2.1 184.9 0 35.9-1.7 67.7-9.9 93.9-36.2 26.2-26.2 34.4-58 36.2-93.9 2.1-37 2.1-147.8 0-184.8zM398.8 388a75.63 75.63 0 0 1-42.6 42.6c-29.5 11.7-99.5 9-132.1 9s-102.7 2.6-132.1-9A75.63 75.63 0 0 1 49.4 388c-11.7-29.5-9-99.5-9-132.1s-2.6-102.7 9-132.1A75.63 75.63 0 0 1 92 81.2c29.5-11.7 99.5-9 132.1-9s102.7-2.6 132.1 9a75.63 75.63 0 0 1 42.6 42.6c11.7 29.5 9 99.5 9 132.1s2.7 102.7-9 132.1z"/>
  </symbol>

  <symbol id="icon:email" viewBox="0 0 512 512">
  <path d="M256 8C118.94 8 8 118.92 8 256c0 137.06 110.92 248 248 248a248.7 248.7 0 0 0 135.4-40.22 24.03 24.03 0 0 0 5.56-35.37l-10.18-12.44c-7.67-9.37-21.18-11.67-31.37-5.13A184.5 184.5 0 0 1 256 440c-101.46 0-184-82.54-184-184S154.54 72 256 72c100.14 0 184 57.62 184 160 0 38.79-21.1 79.74-58.17 83.7-17.35-.46-16.91-12.86-13.48-30.03l23.44-121.11A24 24 0 0 0 368.23 136h-44.99a13.52 13.52 0 0 0-13.43 12v.08c-14.7-17.9-40.46-21.77-59.98-21.77-74.58 0-137.83 62.23-137.83 151.46 0 65.3 36.79 105.87 96 105.87 26.98 0 57.37-15.64 75-38.33 9.51 34.1 40.6 34.1 70.7 34.1C462.6 379.41 504 307.8 504 232 504 95.65 394.02 8 256 8zm-21.68 304.43c-22.25 0-36.07-15.62-36.07-40.77 0-45 30.78-72.73 58.63-72.73 22.3 0 35.6 15.24 35.6 40.77 0 45.06-33.87 72.73-58.16 72.73z"/>
  </symbol>

</svg>
