<?xml version="1.0" encoding="utf-8"?>
<!-- Generator: Adobe Illustrator 24.0.0, SVG Export Plug-In . SVG Version: 6.00 Build 0)  -->
<svg version="1.1" id="Layer_1" xmlns="http://www.w3.org/2000/svg" xmlns:xlink="http://www.w3.org/1999/xlink" x="0px" y="0px"
	 viewBox="0 0 279.4 119" style="enable-background:new 0 0 279.4 119;" xml:space="preserve">
<style type="text/css">
	.st0{fill:#A38C4B;}
</style>
<g>
	<g>
		<g>
			<path class="st0" d="M139.6,99.3l-33.3-19.2V41.6l33.3-19.2l33.3,19.2v38.4L139.6,99.3z M110,77.9L139.6,95l29.6-17.1V43.8
				l-29.6-17.1L110,43.8V77.9z"/>
		</g>
		<g>
			<path d="M42.3,51v5.3h-2.9v-2.4H22.8v18h5.9v2.9H13.9v-2.9h5.9v-18H3.2v2.4H0.3V51H42.3z"/>
		</g>
		<g>
			<path d="M29,75H13.6v-3.5h5.9V54.2h-16v2.4H0v-5.9h42.6v5.9h-3.5v-2.4h-16v17.3H29V75z M14.3,74.4h14.1v-2.2h-5.9V53.5h17.3v2.4
				H42v-4.7H0.6v4.7h2.2v-2.4h17.3v18.6h-5.9V74.4z"/>
		</g>
		<g>
			<path d="M89.6,53.8v18h5.6v2.9H81.1v-2.9h5.6V55.1l-15.6,9.4l-15.6-9.4v16.7h5.6v2.9H47.1v-2.9h5.6v-18h-5.6V51h7.2l16.8,10.1
				L88,51h7.2v2.9H89.6z"/>
		</g>
		<g>
			<path d="M95.5,75H80.8v-3.5h5.6V55.6l-15.3,9.2l-15.2-9.2v15.9h5.6V75H46.7v-3.5h5.6V54.2h-5.6v-3.5h7.6l16.7,10.1l16.8-10.1h7.6
				v3.5h-5.6v17.3h5.6V75z M81.4,74.4h13.4v-2.2h-5.6V53.5h5.6v-2.2H88L71.1,61.5L54.2,51.3h-6.8v2.2H53v18.6h-5.6v2.2h13.4v-2.2
				h-5.6V54.5l15.9,9.6L87,54.5v17.6h-5.6V74.4z"/>
		</g>
		<g>
			<path d="M228.4,67.6c0,4.8-3.8,7.1-8.4,7.1h-18.4c-2.7,0-5.2-0.8-6.5-2.7l-0.4-0.6l2.3-1.7l0.4,0.6c0.6,0.9,2.1,1.5,4.2,1.5h18.4
				c3.6,0,5.6-1.6,5.6-4.2c0-3-2.5-4.2-5.6-4.2h-27.4v11.3H184v-2.9h5.6v-18H184V51h36c4,0,7.4,2,7.4,6.2c0,2.1-0.8,3.6-2.1,4.6
				C227.1,63,228.4,64.9,228.4,67.6z M192.5,53.8v6.6H220c2.6,0,4.6-1,4.6-3.3c0-2.4-2.2-3.3-4.6-3.3H192.5z"/>
		</g>
		<g>
			<path d="M219.9,75h-18.4c-3,0-5.4-1-6.8-2.8l-0.6-0.9l2.8-2.1l0.6,0.8c0.5,0.7,1.8,1.4,3.9,1.4h18.4c3.3,0,5.2-1.4,5.2-3.9
				c0-3.5-3.7-3.9-5.2-3.9h-27.1V75h-9.1v-3.5h5.6V54.2h-5.6v-3.5h36.3c4.7,0,7.7,2.6,7.7,6.5c0,1.9-0.7,3.5-1.9,4.6
				c1.9,1.3,2.9,3.3,2.9,5.8C228.7,72.1,225.2,75,219.9,75z M195,71.5l0.3,0.4c1.2,1.6,3.4,2.5,6.2,2.5h18.4c3.9,0,8.1-1.8,8.1-6.8
				c0-2.5-1-4.3-3-5.5l-0.4-0.2l0.4-0.3c1.3-1,2-2.5,2-4.4c0-4.3-3.7-5.9-7.1-5.9h-35.7v2.2h5.6v18.6h-5.6v2.2h7.9V63h27.7
				c3.7,0,5.9,1.7,5.9,4.6c0,2.8-2.2,4.5-5.9,4.5h-18.4c-2,0-3.7-0.6-4.5-1.7l-0.2-0.3L195,71.5z M220,60.8h-27.8v-7.3H220
				c3,0,4.9,1.4,4.9,3.6C224.9,59.4,223,60.8,220,60.8z M192.8,60.2H220c1,0,4.3-0.2,4.3-3c0-2.8-3.3-3-4.3-3h-27.2V60.2z"/>
		</g>
		<g>
			<path d="M279.1,71.8v2.9h-4.2c-2,0-4-0.4-5.6-1.7l-9.3-7.4h-18.6v6.2h5.6v2.9h-14v-2.9h5.6v-18H233V51h34.4
				c5.1,0,9.5,2.3,9.5,7.3c0,5-4.3,7.4-9.5,7.4h-2.7l6.5,5.1c0.7,0.6,2.1,1.1,3.7,1.1H279.1z M241.5,62.8h26.8
				c3.2,0,5.8-1.5,5.8-4.5c0-3-2.6-4.4-5.8-4.4h-26.8V62.8z"/>
		</g>
		<g>
			<path d="M279.4,75h-4.5c-2.4,0-4.3-0.6-5.8-1.8l-9.2-7.3h-18.1v5.5h5.6V75h-14.7v-3.5h5.6V54.2h-5.6v-3.5h34.7c6,0,9.8,3,9.8,7.6
				c0,4.7-3.9,7.7-9.8,7.7h-1.8l5.8,4.6c0.7,0.6,2.1,1,3.5,1h4.5V75z M241.2,65.3h19l9.4,7.4c1.3,1.1,3.1,1.6,5.4,1.6h3.9v-2.2h-3.9
				c-1.6,0-3.1-0.4-3.9-1.1l-7.2-5.7h3.7c4.4,0,9.2-1.9,9.2-7c0-5.2-4.7-7-9.2-7h-34.1v2.2h5.6v18.6h-5.6v2.2h13.4v-2.2h-5.6V65.3z
				 M268.2,63.1h-27.1v-9.6h27.1c3.7,0,6.1,1.9,6.1,4.8C274.3,61.2,271.9,63.1,268.2,63.1z M241.8,62.4h26.5c2.6,0,5.4-1.1,5.4-4.2
				c0-3-2.8-4.1-5.4-4.1h-26.5V62.4z"/>
		</g>
		<g>
			<polygon class="st0" points="129,54.4 139.2,60.3 149.3,54.4 151.3,54.4 139.2,33.3 127,54.4 			"/>
		</g>
		<g>
			<polygon class="st0" points="126.5,64.7 139.2,72.1 151.8,64.7 154.5,64.7 149.8,56.6 139.2,62.7 128.5,56.6 123.8,64.7 			"/>
		</g>
		<g>
			<polygon class="st0" points="152.5,66.8 152.4,66.8 139.2,74.5 125.9,66.8 125.8,66.8 119.8,77.2 119.8,77.2 125.8,77.2 
				139.2,84.9 152.5,77.2 158.5,77.2 158.5,77.2 			"/>
		</g>
	</g>
	<g>
		<path d="M65.2,112.5c0.4,0,0.9,0.1,1.3,0.3s0.7,0.4,1,0.7l-0.8,0.8c-0.4-0.4-0.9-0.6-1.5-0.6c-0.3,0-0.6,0.1-0.8,0.2
			c-0.3,0.1-0.5,0.3-0.7,0.5c-0.2,0.2-0.4,0.4-0.5,0.7c-0.1,0.3-0.2,0.5-0.2,0.8c0,0.3,0.1,0.6,0.2,0.8c0.1,0.3,0.3,0.5,0.5,0.7
			c0.2,0.2,0.4,0.4,0.7,0.5c0.3,0.1,0.5,0.2,0.8,0.2c0.6,0,1.1-0.2,1.5-0.6l0.8,0.8c-0.3,0.3-0.6,0.5-1,0.7s-0.8,0.3-1.3,0.3
			c-0.4,0-0.9-0.1-1.3-0.3c-0.4-0.2-0.7-0.4-1-0.7c-0.3-0.3-0.5-0.6-0.7-1c-0.2-0.4-0.3-0.8-0.3-1.3c0-0.4,0.1-0.9,0.3-1.2
			c0.2-0.4,0.4-0.7,0.7-1c0.3-0.3,0.6-0.5,1-0.7C64.4,112.6,64.8,112.5,65.2,112.5z"/>
		<path d="M77.2,119l-1.3-2.2h-1.8v2.2H73v-6.5h3.2c0.6,0,1.1,0.2,1.5,0.6c0.4,0.4,0.6,0.9,0.6,1.5c0,0.4-0.1,0.9-0.4,1.2
			c-0.2,0.4-0.6,0.6-1,0.8l1.3,2.3H77.2z M76.3,113.6h-2.2v2.2l2.2,0c0.3,0,0.5-0.1,0.8-0.3c0.2-0.2,0.3-0.5,0.3-0.8
			c0-0.3-0.1-0.5-0.3-0.8S76.6,113.6,76.3,113.6z"/>
		<path d="M88.3,112.5v1.1h-3.2v1.6h3.2v1.1h-3.2v1.6h3.2v1.1H84v-6.5H88.3z"/>
		<path d="M98.6,118h-3L95,119h-1.2l3.2-6.5l3.2,6.5h-1.2L98.6,118z M96.1,116.9H98l-1-1.9L96.1,116.9z"/>
		<path d="M103.7,112.5h5.4v1.1h-2.2v5.4h-1.1v-5.4h-2.2V112.5z"/>
		<path d="M114.6,112.5h1.1v6.5h-1.1V112.5z"/>
		<path d="M122.4,112.5l2,4.1l2-4.1h1.2l-3.2,6.5l-3.2-6.5H122.4z"/>
		<path d="M137.5,112.5v1.1h-3.2v1.6h3.2v1.1h-3.2v1.6h3.2v1.1h-4.3v-6.5H137.5z"/>
		<path d="M154.3,118h-3l-0.6,1.1h-1.2l3.2-6.5l3.2,6.5h-1.2L154.3,118z M151.9,116.9h1.9l-1-1.9L151.9,116.9z"/>
		<path d="M163.8,112.5c0.4,0,0.9,0.1,1.3,0.3c0.4,0.2,0.7,0.4,1,0.7l-0.8,0.8c-0.4-0.4-0.9-0.6-1.5-0.6c-0.6,0-1.1,0.2-1.5,0.6
			c-0.4,0.4-0.6,0.9-0.6,1.5c0,0.6,0.2,1.1,0.6,1.5c0.4,0.4,0.9,0.6,1.5,0.6c0.3,0,0.6-0.1,0.9-0.2c0.3-0.1,0.5-0.3,0.7-0.5v-0.9
			h-1.6v-1.1h2.7v2.3c-0.2,0.2-0.3,0.4-0.5,0.6c-0.2,0.2-0.4,0.3-0.6,0.5c-0.2,0.1-0.5,0.2-0.7,0.3c-0.3,0.1-0.5,0.1-0.8,0.1
			c-0.9,0-1.7-0.3-2.3-1c-0.6-0.6-1-1.4-1-2.3c0-0.9,0.3-1.7,1-2.3C162.1,112.9,162.9,112.5,163.8,112.5z"/>
		<path d="M176.3,112.5v1.1h-3.2v1.6h3.2v1.1h-3.2v1.6h3.2v1.1H172v-6.5H176.3z"/>
		<path d="M181.9,112.5l4.3,3.9v-3.9h1.1v6.5v0v0l-4.3-3.9v3.9h-1.1V112.5z"/>
		<path d="M196,112.5c0.5,0,0.9,0.1,1.3,0.3c0.4,0.2,0.7,0.4,1,0.7l-0.8,0.8c-0.4-0.4-0.9-0.6-1.5-0.6c-0.3,0-0.6,0.1-0.8,0.2
			c-0.3,0.1-0.5,0.3-0.7,0.5c-0.2,0.2-0.4,0.4-0.5,0.7c-0.1,0.3-0.2,0.5-0.2,0.8c0,0.3,0.1,0.6,0.2,0.8c0.1,0.3,0.3,0.5,0.5,0.7
			c0.2,0.2,0.4,0.4,0.7,0.5c0.3,0.1,0.5,0.2,0.8,0.2c0.6,0,1.1-0.2,1.5-0.6l0.8,0.8c-0.3,0.3-0.6,0.5-1,0.7
			c-0.4,0.2-0.8,0.3-1.3,0.3c-0.4,0-0.9-0.1-1.3-0.3c-0.4-0.2-0.7-0.4-1-0.7c-0.3-0.3-0.5-0.6-0.7-1c-0.2-0.4-0.3-0.8-0.3-1.3
			c0-0.4,0.1-0.9,0.3-1.2c0.2-0.4,0.4-0.7,0.7-1c0.3-0.3,0.6-0.5,1-0.7C195.2,112.6,195.6,112.5,196,112.5z"/>
		<path d="M208.3,112.5h1.4l-2.7,3.4v3.1h-1.1v-3l-2.7-3.5h1.4l1.8,2.4L208.3,112.5z"/>
	</g>
	<g>
		<path d="M104.8,11.3c0.2,0,0.5,0.1,0.7,0.3c-0.7,1.7-1.3,3.2-2.3,3.6c-1,0.3-1.4-0.6-1.4-1.7l0-1.5l-1.8,0.6
			c-0.7,2.2-1.7,4.3-3.6,4.9c-2.8,0.9-5.1-1.4-4.5-4.7c0.6-3,4-4.4,5.8-2.3l-0.9,0.8c-1.2-1.3-3.2-0.6-3.7,1.8
			c-0.5,2.2,0.8,4,2.8,3.3c3.4-1.2,3.8-11.5,7.1-11.5l-0.1,8.7c0,0.6,0.1,0.7,0.3,0.6c0.2-0.1,0.9-1.2,1.5-2.7L104.8,11.3z
			 M100.2,11.8l1.6-0.5l0.1-4.3C101.2,8.3,100.7,10,100.2,11.8z"/>
		<path d="M116.1,5.2c0-0.1,0-0.2,0-0.2c-0.2-1.7,1.6-2.6,3.2-2.8c1.4-0.2,2.9-0.3,4.1-1.3l0.9,1.1l0,0l-1.7,4.2l1.2-0.2l-0.3,0.7
			L122.2,7l-1.2,3c-0.9,2.2-2.4,3.2-3.8,3.4c-1.8,0.3-3.4-0.9-3.6-2.4c-0.2-1.7,1.1-3.3,2.8-3.5l0.1,1.1c-1.1,0.2-2,1.1-1.8,2.2
			c0.1,1,1.2,1.6,2.3,1.5c1-0.1,2.1-0.9,2.7-2.4l1.1-2.7l-1.3,0.2l0.3-0.7l1.4-0.2l1.6-3.9c-0.7,0.4-1.7,0.5-2.6,0.6
			c-1.6,0.2-2.9,0.7-2.8,1.8l0,0.1L116.1,5.2z"/>
		<path d="M130.2,7.8c0.2,0.1,0.5,0.3,0.6,0.4c-1.1,1.5-2.3,2.8-3.5,2.9c-0.9,0.1-1.4-0.5-1.3-1.3c-0.6,0.7-1.5,1.5-2.2,1.6
			c-0.9,0.1-1.3-0.8-0.7-2.1l2.4-5.1l1.4-0.1l-2.4,5.1c-0.2,0.3-0.5,0.9-0.1,1c0.3,0.1,1.1-0.5,2.1-1.6l2.2-4.6l1.4-0.1l-2.6,5.6
			c-0.3,0.6-0.1,0.8,0.2,0.8c0.6,0,1.6-1.1,2.5-2.3L130.2,7.8z"/>
		<path d="M133.7,7.6c0.2,0.1,0.5,0.3,0.6,0.5c-1.1,1.4-2.4,2.8-3.6,2.8c-1.2,0.1-1.6-0.9-1.1-2l4.2-8.2l1.4-0.1l-4.4,8.6
			c-0.3,0.6-0.1,0.8,0.2,0.8c0.6,0,1.6-1,2.6-2.3L133.7,7.6z"/>
		<path d="M137.2,7.5c0.2,0.1,0.4,0.3,0.5,0.5c-1.1,1.4-2.5,2.7-3.6,2.7c-1.2,0-1.6-0.9-1-2l4.4-8.1l1.4,0l-4.6,8.5
			c-0.3,0.6-0.1,0.8,0.2,0.8c0.6,0,1.6-1,2.6-2.2L137.2,7.5z"/>
		<path d="M146.1,9.3c0.5,0.4,1.2,0.6,2,0.5c-0.6-2.2,0.7-4.9,3.6-4.6c0.8,0.1,1.4,0.4,1.8,0.9l2.2-1.8c0.4-2.7,1.1-4.3,2.9-4.2
			c1.4,0.1,1.7,1.6,0.1,2.8l-1.8,1.5c-0.1,0.7-0.2,1.5-0.2,2.4c-0.2,3.3-2,5.9-5,5.7c-1.6-0.1-2.7-0.9-3.2-1.8
			c-1.1,0.2-2.1-0.1-2.8-0.8L146.1,9.3z M149.2,9.4c0.3-0.2,0.7-0.4,1-0.6l2.6-2.2c-0.3-0.3-0.7-0.5-1.2-0.5
			C149.7,6,148.8,7.9,149.2,9.4z M149.6,10.2c0.4,0.6,1.1,1,2.1,1.1c2.2,0.2,3.4-1.9,3.6-4.7l0.1-1.1L154,6.8c0.4,1.1,0.2,2.3-0.8,3
			l-0.5-0.6c0.7-0.5,0.8-1.2,0.6-1.8l-2.3,2C150.5,9.7,150.1,10,149.6,10.2z M157.2,2.9l0.6-0.5c1-0.8,0.9-1.3,0.5-1.3
			C157.8,1,157.4,1.6,157.2,2.9z"/>
		<path d="M159,9l-0.2,0.2c-0.8,1.1-0.4,1.7,0.5,1.8c1,0.1,2.4-0.6,3.6-1.7l0.1-0.1c0.2,0.1,0.4,0.4,0.5,0.6c-1.4,1.2-3.1,2.2-4.7,2
			c-1.7-0.2-2.2-1.7-1.2-3.1l1.8-2.3c0.7-1,1.7-1.4,2.9-1.3c1.2,0.2,1.8,1.2,0.8,2.4l-0.2,0.3C161.5,9.5,159.8,9.5,159,9z
			 M159.5,8.3c0.5,0.3,1.4,0.4,2.2-0.7l0.3-0.3c1-1.4-0.4-1.8-1.4-0.5L159.5,8.3z"/>
		<path d="M166.4,8.2c0.2-0.3,0.2-0.6,0.1-0.8l-0.2-0.3c-1.4,1.3-2,1.9-2.9,2.6c-0.2-0.2-0.4-0.4-0.4-0.6c1.1-0.9,2.2-2,2.9-2.7
			l-0.1-0.2c-0.4-0.7-0.2-1.5,0.7-2.1l0.6,0.9c-0.3,0.2-0.4,0.5-0.2,0.8l0.6,1.1c0.4,0.6,0.5,1.2-0.1,1.9l-1.8,2.2
			c-0.4,0.5-0.3,0.7,0,0.8c0.6,0.1,1.8-0.6,3-1.6l0.1-0.1c0.2,0.1,0.4,0.4,0.4,0.6c-1.4,1.1-3,2.2-4.1,2c-1.1-0.2-1.4-1.2-0.6-2.2
			L166.4,8.2z"/>
		<path d="M172.6,7.1l-2.9,4.2c-0.8,1.2-0.7,1.2,0.4,0.1l4.2-4l1.3,0.3l-3,2.9c-1.1,1.3,0.3,1.5,1.2,0.8l0.1-0.1
			c0.2,0.1,0.4,0.4,0.4,0.6c-1.5,1.1-2.7,0.6-2.9-0.2l-1,0.9c-1.5,1.4-3.7,0.6-2.2-1.5l3-4.4L172.6,7.1z"/>
		<path d="M177.2,12.3c0.2,0.1,0.3,0.4,0.4,0.6c-1.5,1-3.1,1.9-4.3,1.6c-1.1-0.3-1.3-1.3-0.4-2.2l4-4.1l1.4,0.4l-4.3,4.4
			c-0.5,0.5-0.3,0.7,0,0.8c0.6,0.2,1.8-0.5,3.1-1.4L177.2,12.3z M179.1,6.3c0.5,0.1,0.7,0.6,0.6,1c-0.1,0.5-0.6,0.7-1,0.6
			c-0.4-0.1-0.7-0.6-0.6-1C178.2,6.5,178.7,6.2,179.1,6.3z"/>
		<path d="M178.2,13.1c-1,0.9-0.6,1.6,0.2,1.8c1,0.3,2.5-0.2,3.8-1l0.1-0.1c0.2,0.1,0.3,0.4,0.4,0.6c-1.5,0.9-3.4,1.7-5,1.2
			c-1.6-0.5-1.9-2.1-0.6-3.3l2.2-2c0.9-0.8,1.9-1.1,3-0.8c1.1,0.4,1.5,1.5,0.4,2.5l-0.3,0.3l-1.1-0.4l0.3-0.3
			c1.3-1.2-0.1-1.8-1.3-0.7L178.2,13.1z"/>
		<path d="M183.4,14.6l-0.2,0.2c-1,0.8-0.7,1.5,0.1,1.9c0.9,0.4,2.5,0,3.9-0.8l0.1-0.1c0.2,0.1,0.3,0.4,0.3,0.7
			c-1.6,0.8-3.6,1.4-5.1,0.8c-1.6-0.6-1.8-2.2-0.4-3.3l2.3-1.8c0.9-0.8,2-1,3.1-0.6c1.1,0.4,1.4,1.6,0.2,2.6l-0.3,0.3
			C185.8,15.8,184.1,15.3,183.4,14.6z M184,14.1c0.4,0.4,1.3,0.7,2.3-0.1l0.3-0.3c1.3-1.1,0.1-1.8-1.2-0.8L184,14.1z"/>
	</g>
</g>
</svg>
