<svg xmlns="http://www.w3.org/2000/svg" viewBox="0 0 122 26">
  <g fill="#000">
    <path d="M98.9 18.7h2.8v-8.5h-2.8V8.5h17c2.9 0 4.8 1.5 4.8 3.8s-1.9 3.8-4.8 3.8h-.9l2.9 2.2c.3.3 1 .5 1.7.5h2.2v1.7h-2.2c-1.2 0-2.1-.3-2.8-.9l-4.5-3.6h-8.9v2.7h2.7v1.7h-7.2v-1.7zm17.4-8.4h-13v4h13c1.3 0 2.7-.5 2.7-2s-1.4-2-2.7-2zM92.5 8.7h.21-.21a5.9 5.9 0 01.55.03h.05l.16.02h.02c1.86.27 3.02 1.48 3.02 3.15 0 .9-.3 1.7-.9 2.3.9.6 1.4 1.6 1.4 2.9 0 2-1.6 3.4-4.3 3.4h-9.1c-1.5 0-2.7-.5-3.3-1.4l-.3-.4 1.4-1 .3.4c.2.3.9.7 1.9.7h9.1c1.6 0 2.6-.7 2.6-1.9 0-1.64-1.67-1.88-2.51-1.9H79.1v5.6h-4.5v-1.7h2.8v-8.5h-2.8V8.7h17.9zm.1 1.5H79.2v3h13.4c.5 0 2.1-.1 2.1-1.5 0-1.3-1.38-1.48-1.98-1.5h-.12zM23.2 18.8h2.7v-8.5h-2.7v-.2h-.1V8.7h.1v-.1H27l8.18 4.99L43.3 8.7h.03l.17-.1h3.8v1.7h-2.8v8.5h2.8v1.7h-7.5v-1.7h2.8V11l-7.5 4.5-7.5-4.5v7.8h2.8v1.7h-7.2v-1.7zM21 8.6v2.9h-1.7v-1.2h-7.9v8.5h2.9v1.7H6.7v-1.7h2.9v-8.5H1.7v1.2H0V8.6h21z"/>
  </g>
  <g fill="#A38C4B">
    <path d="M55.6 10.4l5 2.9 5-2.9h1L60.6 0l-6 10.4z"/>
    <path d="M54.4 15.5l6.2 3.6 6.3-3.6h1.3l-2.3-4.1-5.3 3.1-5.2-3.1-2.3 4.1z"/>
    <path d="M67.2 16.5l-6.6 3.8-6.5-3.8H54l-2.9 5.1H54l6.6 3.8 6.6-3.8h3z"/>
  </g>
</svg>
