<?xml version="1.0" encoding="utf-8"?>
<!-- Generator: Adobe Illustrator 25.2.1, SVG Export Plug-In . SVG Version: 6.00 Build 0)  -->
<svg version="1.1" id="Layer_1" xmlns="http://www.w3.org/2000/svg" xmlns:xlink="http://www.w3.org/1999/xlink" x="0px" y="0px"
	 viewBox="0 0 89.5 71.7" style="enable-background:new 0 0 89.5 71.7;" xml:space="preserve">
<style type="text/css">
	.st0{fill:none;stroke:#333333;stroke-width:0.9707;stroke-miterlimit:10;}
	.st1{fill:none;stroke:#333333;stroke-miterlimit:10;}
</style>
<g>
	<path class="st0 ess" d="M25.3,51.9c-3.4,0.7-7.6-0.3-11.4-2.9c-2.8-2-5.2-5.3-7.2-10.9c-0.4-1.1-0.7-2.2-1-3.4H2.6v19.9h2.9l0.1-0.5
		l0.1-0.4l0.1-0.4l0.4-0.7c1-1.9,1.6-2,4.7-0.6c0.8,0.4,1.6,0.7,2.3,1c4.8,1.7,8.9,2.4,12.7,2.2l2-4.4
		C27.1,51.4,26.3,51.7,25.3,51.9z"/>
	<path class="st0 ess" d="M28.2,22.4c-1.2-0.5-2.3-1-3.7-1.3c-8.7-2.7-11.2-4.8-11.7-7.8c-1-5,2.2-8.3,8.3-7.7c5.9,0.5,11,4.6,14.3,12.7
		c0.3,0.7,0.5,1.3,0.7,1.9h3.3V3h-2.9l-0.1,0.4l-0.2,0.3v0.1l-0.4,0.7c-0.9,1.5-1.7,1.9-2.9,1.4l-0.4-0.2l-1.7-0.8
		c-0.8-0.4-1.6-0.7-2.3-1C21.2,1.5,15.1,1.6,10,3.8C1.5,7.5-1.5,17.9,4.2,25.4c2.1,2.9,4.7,4.6,11.1,7.2c1.1,0.5,2.3,1,3.4,1.3
		c8.1,2.6,10.6,4.4,12.6,7.6c0.2,0.4,0.3,0.7,0.5,1.1l6.5-14.1c-0.5-0.5-0.9-1-1.4-1.4C35,25.4,33.1,24.3,28.2,22.4z"/>
</g>
<g>
	<path class="st0 dubs" d="M47.4,64.6l8.1-23.9l7.3,23.9H69l12.6-37.2l0.1-0.4l0.2-0.4c0.4-1.2,1.1-1.7,2.2-2l0.6-0.2h0.1h3.4v-2.1H72.9
		v2h3.4c0.1,0,0.2,0,0.7,0.2c1,0.4,1.4,1,1.1,2l-0.1,0.7l-0.1,0.2l-8.1,24.1l-6.8-24.1v-0.1l-0.2-0.8c-0.3-1.1,0.1-1.7,1.2-2
		c0.5-0.2,0.6-0.2,0.7-0.2H68v-2.1H46.6v2.1H50l0.1,0.2l0.3,0.4l0.1,0.3c0.1,0.3,0.3,0.7,0.5,1.5l0.2,0.8l2.3,7.7l-5.7,16.5L42.1,31
		L35.2,46l5.6,18.6H47.4z"/>
</g>
<line class="st1 slash" x1="53.7" y1="1.2" x2="21.4" y2="70.5"/>
</svg>
