<?xml version="1.0" encoding="utf-8"?>
<!-- Generator: Adobe Illustrator 25.2.3, SVG Export Plug-In . SVG Version: 6.00 Build 0)  -->
<svg version="1.1" id="Layer_1" xmlns="http://www.w3.org/2000/svg" xmlns:xlink="http://www.w3.org/1999/xlink" x="0px" y="0px"
	 viewBox="0 0 489.3 219.2" style="enable-background:new 0 0 489.3 219.2;" xml:space="preserve">
<style type="text/css">
	.st0{fill:#333333;}
</style>
<g>
	<path class="st0" d="M133.7,171.8h-7.6c-1.1,0-2,0.9-2,2s0.9,2,2,2h7.6c1.1,0,2-0.9,2-2S134.8,171.8,133.7,171.8z"/>
	<path class="st0" d="M119.8,171.8h-1.3c-1.1,0-2,0.9-2,2s0.9,2,2,2h1.3c1.1,0,2-0.9,2-2S120.9,171.8,119.8,171.8z"/>
	<path class="st0" d="M348.9,171.8h-34c-1.1,0-2,0.9-2,2s0.9,2,2,2h14.6l-83.8,39.5l-83.8-39.5h13.3c1.1,0,2-0.9,2-2s-0.9-2-2-2h-34
		c-1.1,0-2,0.9-2,2s0.9,2,2,2h12l91.6,43.2c0.3,0.1,0.6,0.2,0.9,0.2c0.3,0,0.6-0.1,0.9-0.2l91.6-43.2h10.8c1.1,0,2-0.9,2-2
		S350,171.8,348.9,171.8z"/>
	<path class="st0" d="M363.2,171.8h-7.6c-1.1,0-2,0.9-2,2s0.9,2,2,2h7.6c1.1,0,2-0.9,2-2S364.3,171.8,363.2,171.8z"/>
	<path class="st0" d="M370.8,171.8h-1.3c-1.1,0-2,0.9-2,2s0.9,2,2,2h1.3c1.1,0,2-0.9,2-2S371.9,171.8,370.8,171.8z"/>
	<path class="st0" d="M150,128.5h-10.3l-0.2,1.8l3.4,0.2v22.8l-3.2,0.1l-0.2,1.9h9.6l0.2-1.8l-4.2-0.2v-8.9h4.2c6,0,8.8-2.5,8.8-8
		C158.1,131.5,155,128.5,150,128.5z M149.8,142.3h-4.7v-11.6h4.7c4,0,6,2,6,5.8c0,2.2-0.4,3.5-1.4,4.8
		C153.2,141.9,151.6,142.3,149.8,142.3z"/>
	<path class="st0" d="M181,155.3l0.2-1.8l-3.2-0.2v-9.7c0-4.9-2.5-7.5-7.1-7.5c-2.1,0-3.9,0.7-5.3,2.1l0-11l-0.2-1.6l-1.5,0
		l-3.7,0.3v1.8h3.1v25.5l-2.8,0.2l-0.2,1.8h8.3l0.2-1.8l-3.2-0.2v-11.5c0.5-1,1.3-1.9,2.2-2.8c1.1-0.4,2.1-0.6,3.1-0.6
		c3.4,0,4.9,1.7,4.9,5.4v11.6H181z"/>
	<path class="st0" d="M182.5,145.9c0,6.1,3.3,9.7,8.8,9.7c5.1,0,8.2-3.6,8.2-9.6c0-7.2-4.4-9.8-8.2-9.8
		C186,136.2,182.5,140,182.5,145.9z M191.3,153.4c-5.9,0-6.5-5.3-6.5-7.5c0-2.8,0.7-4.7,2.3-6.4c1.2-0.7,2.2-1.2,4-1.2
		c3.6,0,6.1,3.1,6.1,7.6c0,3.1-0.6,4.4-1.9,6.2C194.1,153,192.7,153.4,191.3,153.4z"/>
	<path class="st0" d="M209,155.3c1.1,0,2-0.1,3.2-0.3l0.7-0.1l-0.2-1.6H209c-0.9,0-1.9-0.6-1.9-2.2v-12.5l5.4-0.1l0.2-1.9h-5.5V131
		l-1.9,0.2l-0.3,5.3h-3.6l-0.2,1.9l3.7,0.1v12.2C204.9,153.5,206.5,155.3,209,155.3z"/>
	<path class="st0" d="M223,136.2c-5.3,0-8.8,3.8-8.8,9.7c0,6.1,3.3,9.7,8.8,9.7c5.1,0,8.2-3.6,8.2-9.6
		C231.2,138.7,226.8,136.2,223,136.2z M223,153.4c-5.9,0-6.5-5.3-6.5-7.5c0-2.8,0.7-4.7,2.3-6.4c1.2-0.7,2.2-1.2,4-1.2
		c3.6,0,6.1,3.1,6.1,7.6c0,3.1-0.6,4.4-1.9,6.2C225.8,153,224.4,153.4,223,153.4z"/>
	<path class="st0" d="M249.3,133.8h-2l-0.7,3.3l-1,0.6c-1.2-1-2.8-1.5-4.7-1.5c-3.9,0-6.8,2.9-6.8,6.8c0,2,0.6,3.7,1.7,4.8
		c-1,1.5-1.6,3-1.6,4.3c0,1,0.2,1.8,0.7,2.4c-0.8,1-1.4,2.2-1.4,4.1c0,2.6,2,5.4,7.6,5.4c5.6,0,9.4-2.7,9.4-6.6
		c0-3.8-3.5-3.8-4.7-3.8h-7.5c-1.6,0-1.8-0.7-1.8-1.4c0-0.8,0.4-1.8,1.2-3c0.9,0.4,2,0.6,3.3,0.6c4.2,0,6.7-2.5,6.7-6.8
		c0-1.4-0.3-2.6-0.8-3.6l1.8-0.8L249.3,133.8z M245.6,142.8c0,2-0.4,2.8-1.1,3.7c-1.1,0.7-2.1,1-3.5,1c-2.9,0-4.6-1.6-4.6-4.5
		c0-1.6,0.5-2.7,1.5-3.8c1.1-0.6,2.2-0.8,3-0.8C243.9,138.3,245.6,140,245.6,142.8z M238,155.6h7.8c2.4,0,2.6,0.7,2.6,1.6
		c0,2.8-2.7,4.5-7.2,4.5c-3.3,0-5.4-1.2-5.4-3.2c0-1.1,0.4-2.1,1.1-3C237.3,155.5,237.7,155.6,238,155.6z"/>
	<path class="st0" d="M263.3,138.4l0.1,3.5l1.9,0.1l0.2-4.7l-0.3-1.2l-0.6,0c-2.7,0.1-5.3,1-7.3,2.5c0-0.5-0.1-1-0.2-1.5l-0.1-0.6
		l-1.3,0l-3.7,0.3v1.9h3.1v14.7l-2.5,0.2l-0.2,1.8h7.7l0.2-1.8l-3-0.2v-11.9C258.8,139.7,260.7,138.8,263.3,138.4z"/>
	<path class="st0" d="M279.8,152.9l0.1,2.4h5.1l0.2-1.8l-3.3-0.2v-9.8c0-4.8-2.3-7.3-6.8-7.3c-2,0-3.9,0.3-5.6,0.8l-0.4,0.1l-0.2,1
		l0.4,5.1l2-0.1l0-4.4c0.9-0.2,2.4-0.5,3.8-0.5c3,0,4.6,1.8,4.6,5.3v1.3c-4.7,0.2-8.3,0.7-11,1.2l-0.4,0.1l-0.2,0.3
		c-0.2,0.5-0.8,1.9-0.8,4c0,2.3,1.5,5,5.8,5C276.1,155.6,278.3,154.2,279.8,152.9z M270,148c2.3-0.5,6.8-0.9,9.7-1v3
		c-0.9,1.2-3.2,3.5-6.4,3.5c-2.3,0-3.6-1.1-3.6-3.1C269.6,149.3,269.8,148.5,270,148z"/>
	<path class="st0" d="M297.4,155.6c4.9,0,7.9-3.9,7.9-10.3c0-6.2-4-9.1-7.7-9.1c-2.3,0-4.3,0.6-5.8,1.9l-0.1-1.7l-1.4,0l-3.7,0.3
		v1.9h3.1v23l-2.5,0.2l-0.2,1.8h7.7l0.2-1.8l-3-0.2v-7.2C293.1,155,294.9,155.6,297.4,155.6z M293.5,139.2c1.2-0.6,2.4-0.9,3.9-0.9
		c1.3,0,5.7,0.5,5.7,7.1c0,3.5-0.7,5.2-2,6.8c-1.1,0.9-2.1,1.2-3.7,1.2c-2.3,0-4.1-0.5-5.5-1.6V141
		C292.3,140.4,292.8,139.8,293.5,139.2z"/>
	<path class="st0" d="M312.7,138.2l0-11l-0.2-1.6l-1.5,0l-3.7,0.3v1.8h3.1v25.5l-2.8,0.2l-0.2,1.8h8.3l0.2-1.8l-3.2-0.2v-11.5
		c0.5-1,1.3-1.9,2.2-2.8c1.1-0.4,2.1-0.6,3.1-0.6c3.4,0,4.9,1.7,4.9,5.4v11.6h5.2l0.2-1.8l-3.2-0.2v-9.7c0-4.9-2.5-7.5-7.1-7.5
		C315.9,136.2,314.1,136.8,312.7,138.2z"/>
	<path class="st0" d="M332.7,138.4l2.2-0.2l0.2-1.8h-7.3l-0.2,1.8l2.7,0.2l6.5,16l0.5,0.7l-0.5,1.2c-0.8,2-2.4,4.4-5.4,4.4l-2.5-0.3
		l-0.7,0.4l-0.2,1.1l0.5,0.9h2.8c3.3,0,5.8-1.9,7.4-5.7l7.8-18.6l3.1-0.2l0.2-1.8h-8l-0.2,1.8l2.6,0.2l-5.8,14.1L332.7,138.4z"/>
	<path class="st0" d="M94.4,49.6h1.3c1.1,0,2-0.9,2-2s-0.9-2-2-2h-1.3c-1.1,0-2,0.9-2,2S93.3,49.6,94.4,49.6z"/>
	<path class="st0" d="M393.5,49.6h1.3c1.1,0,2-0.9,2-2s-0.9-2-2-2h-1.3c-1.1,0-2,0.9-2,2S392.4,49.6,393.5,49.6z"/>
	<path class="st0" d="M102,49.6h7.6c1.1,0,2-0.9,2-2s-0.9-2-2-2H102c-1.1,0-2,0.9-2,2S100.9,49.6,102,49.6z"/>
	<path class="st0" d="M243.2,22.4l-0.1,0.1v0l-0.1,0.3c-0.4,0.6-0.7,0.8-1.2,0.6l-0.1-0.1l-0.7-0.3c-0.3-0.1-0.7-0.3-1-0.4
		c-3-1-5.5-0.9-7.6,0c-3.5,1.5-4.8,5.8-2.4,8.9c0.9,1.2,1.9,1.9,4.6,3c0.4,0.2,0.9,0.4,1.4,0.5c3.4,1.1,4.4,1.8,5.2,3.2
		c0.1,0.1,0.1,0.3,0.2,0.4l2.7-5.8c-0.2-0.2-0.4-0.4-0.6-0.6c-0.8-0.7-1.6-1.1-3.6-1.9c-0.5-0.2-1-0.4-1.5-0.5
		c-3.6-1.1-4.6-2-4.9-3.2c-0.4-2.1,0.9-3.4,3.5-3.2c2.4,0.2,4.5,1.9,5.9,5.3c0.1,0.3,0.2,0.5,0.3,0.8h1.4v-7.2h-1.2L243.2,22.4z"/>
	<path class="st0" d="M239.6,42.1c-0.3,0.1-0.7,0.3-1.1,0.4c-1.4,0.3-3.2-0.1-4.7-1.2c-1.2-0.8-2.2-2.2-3-4.5
		c-0.2-0.4-0.3-0.9-0.4-1.4h-1.3v8.3h1.2l0.1-0.2l0-0.2l0.1-0.1l0.1-0.3c0.4-0.8,0.7-0.8,1.9-0.2c0.3,0.2,0.7,0.3,1,0.4
		c2,0.7,3.7,1,5.3,0.9L239.6,42.1z"/>
	<path class="st0" d="M255.4,31.9c0.2-0.1,0.2-0.1,0.3-0.1h1.4V31h-8.8v0.9h1.4l0.1,0.1l0.1,0.1l0,0.1c0,0.1,0.1,0.3,0.2,0.6
		l0.1,0.3l1,3.2l-2.4,6.8l-2.4-8.5l-2.8,6.2l2.3,7.7h2.6l3.3-9.9l3,9.9h2.6l5.2-15.4l0-0.2l0.1-0.2c0.2-0.5,0.4-0.7,0.9-0.9l0.2-0.1
		h0h1.4V31h-6.3v0.9h1.4c0,0,0.1,0,0.3,0.1c0.4,0.1,0.6,0.4,0.4,0.8l-0.1,0.3l0,0.1l-3.4,10l-2.8-10v0l-0.1-0.3
		C254.8,32.3,254.9,32.1,255.4,31.9z"/>
	<path class="st0" d="M251.1,20.7c-0.2-0.1-0.5,0-0.7,0.2l-13.8,30.1c-0.1,0.3,0,0.5,0.2,0.7c0.1,0,0.1,0,0.2,0
		c0.2,0,0.4-0.1,0.5-0.3l13.8-30.1C251.4,21.1,251.3,20.8,251.1,20.7z"/>
	<path class="st0" d="M379,49.6h7.6c1.1,0,2-0.9,2-2s-0.9-2-2-2H379c-1.1,0-2,0.9-2,2S377.9,49.6,379,49.6z"/>
	<path class="st0" d="M372.4,45.6h-36L246.6,0.2c-0.6-0.3-1.3-0.3-1.9,0l-89.8,45.4h-38.7c-1.1,0-2,0.9-2,2s0.9,2,2,2h53.2
		c1.1,0,2-0.9,2-2s-0.9-2-2-2h-6.1L245.6,4L328,45.6h-8.8c-1.1,0-2,0.9-2,2s0.9,2,2,2h53.2c1.1,0,2-0.9,2-2S373.5,45.6,372.4,45.6z"
		/>
	<path class="st0" d="M14.5,85.7C5.8,82.4,3.9,80.6,3.9,75.7c0-2.2,0.7-3.9,2.3-5.7c2.7-1.7,5.7-2.5,8.9-2.5c2,0,5.3,0.5,7.3,1
		l-0.4,7.4l2.9,0.2l0.9-8.8L25.3,66l-0.5-0.1c-3.3-0.9-5.9-1.5-9.8-1.5C6.5,64.4,0.5,69,0.5,75.7c0,7,4.6,10,13.1,13.2
		c9.3,3.5,10.5,7.3,10.5,10.9c0,1.9-0.6,3.4-2.2,5.3c-2.7,1.7-5.8,2.6-9.1,2.6c-3.5,0-6.7-0.6-9.4-1.7l0.8-11.5l-2.9-0.2L0,106.7
		l0.3,1.5l0.5,0.2c3.2,1.4,6.1,2.4,11.9,2.4c7,0,14.6-3.5,14.6-11.1C27.4,93.5,23.5,89.3,14.5,85.7z"/>
	<path class="st0" d="M43.9,107.4c-2.1,0-3.5-1.6-3.5-4.2V81.4l9.2-0.2l0.2-2.7h-9.5v-9.3l-2.7,0.2l-0.5,9.1h-6.1l-0.2,2.7l6.3,0.2
		v21.2c0,4.8,2.6,7.7,6.8,7.7c1.8,0,3.4-0.2,5.4-0.6l0.9-0.2l-0.3-2.2H43.9z"/>
	<path class="st0" d="M77.6,104.7c-2.9,2-6.2,3-9.7,3c-6.7,0-10.9-4.4-11.4-11.8l22.9-0.3l0.6-2.4l0-0.2c0-9.5-4.5-15-12.4-15
		c-8.6,0-14.4,6.5-14.4,16.2c0,10.1,5.8,16.6,14.7,16.6c4.6,0,8.6-1.3,11.5-3.8l0.7-0.6l-1.5-2.4L77.6,104.7z M67.6,81.2
		c5.7,0.1,8.9,4,9.2,11.3l-20.3,0.4c0.3-3.6,1.6-6.7,4.1-9.5C62.9,81.9,65.3,81.2,67.6,81.2z"/>
	<path class="st0" d="M102,78c-4.2,0-7.6,1.2-10.3,3.6l-0.2-3.1l-2.1,0L83.2,79v2.7h5.4v40.1l-4.4,0.3l-0.3,2.6h12.7l0.3-2.6
		l-5.1-0.3v-13.2c2.1,1.2,5.3,2.3,9.8,2.3c8.3,0,13.2-6.5,13.2-17.5C114.9,86,110.9,78,102,78z M91.9,104.8V86.1
		c0.8-1.2,1.7-2.2,2.9-3.3c2.1-1.1,4.2-1.6,6.8-1.6c2.4,0,10.1,0.9,10.1,12.5c0,6.2-1.3,9.1-3.6,11.9c-2,1.6-3.8,2.2-6.5,2.2
		C97.5,107.7,94.3,106.8,91.9,104.8z"/>
	<path class="st0" d="M145.9,90.7v19.6h8.4l0.3-2.6l-5.4-0.3V90.6c0-8.2-4.1-12.6-11.9-12.6c-3.9,0-7,1.3-9.4,3.9V62.5l-0.3-2.6
		l-2.3,0l-6.1,0.5V63h5.4v44.5l-4.9,0.3l-0.3,2.6H133l0.3-2.6l-5.5-0.3V87.4c0.9-1.7,2.3-3.5,4-5c1.9-0.8,3.6-1.2,5.5-1.2
		C143.2,81.2,145.9,84.2,145.9,90.7z"/>
	<path class="st0" d="M184.2,93.2l0-0.2c0-9.5-4.5-15-12.4-15c-8.6,0-14.4,6.5-14.4,16.2c0,10.1,5.8,16.6,14.7,16.6
		c4.6,0,8.6-1.3,11.5-3.8l0.7-0.6l-1.5-2.4l-0.9,0.6c-2.9,2-6.2,3-9.7,3c-6.7,0-10.9-4.4-11.4-11.8l22.9-0.3L184.2,93.2z
		 M160.8,92.8c0.3-3.6,1.6-6.7,4.1-9.5c2.3-1.4,4.8-2.1,7-2.1c5.7,0.1,8.9,4,9.2,11.3L160.8,92.8z"/>
	<path class="st0" d="M195.7,78.5l-2,0l-6.1,0.4v2.7h5.4v25.8l-4.4,0.3l-0.3,2.6H201l0.3-2.5l-5.1-0.3V87.4c1-1.9,2.4-3.7,4-5
		c1.8-0.8,3.6-1.2,5.4-1.2c5.9,0,8.7,3,8.7,9.5v19.6h8.4l0.3-2.6l-5.4-0.3V90.6c0-8.2-4.1-12.6-11.9-12.6c-3.9,0-7,1.3-9.4,3.9v-0.4
		L195.7,78.5z"/>
	<polygon class="st0" points="278,64.9 261.5,64.9 261.3,67.4 267.2,67.8 269.4,74.3 258.7,105.3 246.1,67.7 251.7,67.4 252,64.9 
		237.5,64.9 237.3,67.4 242.6,67.8 257,110.3 260.4,110.3 271.1,79.1 282.1,110.3 285.6,110.3 300.2,67.8 305.8,67.4 306.1,64.9 
		290.8,64.9 290.5,67.4 296.8,67.7 283.9,105.5 270.6,67.7 277.7,67.5 	"/>
	<polygon class="st0" points="304.4,81.1 309.6,81.4 309.6,107.5 305.2,107.8 304.9,110.3 317.7,110.3 317.9,107.8 312.9,107.5 
		312.9,80.8 312.5,78.5 304.7,78.5 	"/>
	<path class="st0" d="M313.4,69.4c0-1.4-1.4-2.8-2.8-2.8c-1.5,0-2.7,1.5-2.7,2.7c0,1.5,1.3,2.8,2.7,2.8
		C312,72.2,313.4,70.8,313.4,69.4z"/>
	<polygon class="st0" points="330.4,59.9 328.1,59.9 322,60.4 322,63 327.4,63 327.4,107.5 322.6,107.8 322.3,110.3 335.9,110.3 
		336.2,107.8 330.7,107.5 330.7,62.5 	"/>
	<polygon class="st0" points="348.6,59.9 346.4,59.9 340.3,60.4 340.3,63 345.7,63 345.7,107.5 340.8,107.8 340.6,110.3 
		354.2,110.3 354.5,107.8 348.9,107.5 348.9,62.5 	"/>
	<polygon class="st0" points="358.5,81.1 363.7,81.4 363.7,107.5 359.2,107.8 358.9,110.3 371.7,110.3 372,107.8 366.9,107.5 
		366.9,80.8 366.6,78.5 358.7,78.5 	"/>
	<path class="st0" d="M367.5,69.4c0-1.4-1.4-2.8-2.8-2.8c-1.5,0-2.7,1.5-2.7,2.7c0,1.5,1.3,2.8,2.7,2.8
		C366.1,72.2,367.5,70.8,367.5,69.4z"/>
	<path class="st0" d="M400.1,90.3c0-8-3.9-12.3-11.4-12.3c-3.3,0-6.6,0.5-9.6,1.4l-0.6,0.2l-0.3,1.6l0.6,8.5l2.9-0.2l0.1-7.5
		c1.6-0.4,4.3-0.9,6.9-0.9c5.4,0,8.1,3.2,8.1,9.4V93c-5.7,0.3-13.3,0.9-19.1,2.1l-0.5,0.1l-0.2,0.5c-0.4,0.8-1.3,3.2-1.3,6.7
		c0,3.9,2.5,8.4,9.7,8.4c5.2,0,9.1-2.6,11.5-4.9l0.2,4.4h8.2l0.3-2.6l-5.6-0.3V90.3z M396.8,96v5.6c-1.6,2-5.5,6.2-11.3,6.2
		c-4.2,0-6.5-2-6.5-5.6c0-1.8,0.3-3.3,0.6-4.2C383.7,97,391.6,96.3,396.8,96z"/>
	<path class="st0" d="M459.3,90.6c0-8.3-4-12.6-11.7-12.6c-4.6,0-7.9,1.8-10.6,5.6c-1.7-3.7-5.2-5.6-10.4-5.6
		c-3.9,0-6.8,1.2-9.2,3.9v-0.4l-0.5-2.9l-2,0l-6.1,0.4v2.7h5.4v25.8l-4.4,0.3l-0.3,2.6H422l0.2-2.5l-5.1-0.3V87.4c1-1.8,2.4-3.5,4-5
		c1.4-0.6,3-1.2,5.2-1.2c5.9,0,8.5,2.9,8.5,9.5v19.6h8.4l0.3-2.6l-5.4-0.3V90.6c0-0.9-0.1-1.9-0.2-2.7c1-2,2.4-3.9,4.2-5.5
		c1.6-0.7,3.1-1.2,5.2-1.2c5.9,0,8.5,2.9,8.5,9.5v19.6h8.4l0.3-2.6l-5.4-0.3V90.6z"/>
	<path class="st0" d="M479.9,92.8c-5.5-2.5-7.4-4.2-7.4-6.7c0-1.4,0.2-2.3,1.2-3.5c1.9-1,3.8-1.5,5.7-1.5c2.1,0,4.2,0.3,5.9,0.7
		l-0.4,5.8l2.9,0.4l1-7l-0.3-1.4l-0.6-0.2c-2.5-0.8-4.4-1.4-8.4-1.4c-5,0-10.4,2.6-10.4,8.3c0,5,4.3,7.2,9.5,9.4
		c6.8,2.9,7.4,4.9,7.4,6.8c0,1.6-0.4,2.8-1.2,3.9c-1.7,0.9-3.7,1.3-6.2,1.3c-2.6,0-5.3-0.4-7.1-1.1l0.6-7.3l-2.8-0.2l-1.2,7.6
		l0.3,2.1l0.5,0.2c1.2,0.6,4.5,1.8,9.7,1.8c6.8,0,10.6-3,10.6-8.3C489.3,97.1,484.9,95.1,479.9,92.8z"/>
	<path class="st0" d="M255.8,186c0.4,0.5,0.9,0.9,1.6,0.9c0.7,0,1.3-0.3,1.7-0.8l0.5-0.7l7.2,8c0.4,0.4,0.9,0.7,1.5,0.7
		c0.5,0,1-0.2,1.3-0.5c0.8-0.7,0.9-2,0.1-2.8L261,181c-0.4-0.4-1-0.7-1.6-0.7s-1.1,0.3-1.5,0.8l-0.2,0.3l-2.3-3.6
		c-0.4-0.6-1-0.9-1.6-0.9c-0.7,0-1.3,0.3-1.7,0.9l-3.2,4.6l-5-7.2c-0.4-0.5-1-0.9-1.6-0.9c0,0,0,0,0,0c-0.7,0-1.3,0.4-1.6,0.9
		l-3.6,5.7c-0.4-0.3-0.9-0.4-1.4-0.4c-0.6,0-1.1,0.4-1.5,0.8l-3.3,4.7l-1.7-2.3c-0.3-0.5-0.9-0.7-1.5-0.8c-0.6,0-1.1,0.2-1.5,0.6
		l-7,7c-0.8,0.8-0.8,2,0,2.8c0.4,0.4,0.9,0.6,1.4,0.6s1-0.2,1.4-0.6l5.4-5.4l2,2.6c0.4,0.5,1,0.8,1.6,0.8c0.6,0,1.2-0.3,1.6-0.9
		l3.5-5c0.4,0.3,0.9,0.5,1.5,0.5c0.6-0.1,1.2-0.4,1.5-0.9l3.4-5.3l7.8,11.2c0.6,0.9,1.9,1.1,2.8,0.5c0.9-0.6,1.1-1.9,0.5-2.8l-2.1-3
		l2.4-3.4L255.8,186z"/>
</g>
</svg>
