<?xml version="1.0" encoding="utf-8"?>
<!-- Generator: Adobe Illustrator 24.0.0, SVG Export Plug-In . SVG Version: 6.00 Build 0)  -->
<svg version="1.1" id="Layer_1" xmlns="http://www.w3.org/2000/svg" xmlns:xlink="http://www.w3.org/1999/xlink" x="0px" y="0px"
	 viewBox="0 0 144 144" style="enable-background:new 0 0 144 144;" xml:space="preserve">
<g>
	<path d="M12.2,116.7c8.2-7.5,16.4-15.1,24.6-22.6c6.6-6.1,13.2-12.2,20-18.5c3,2.8,5.9,5.5,8.8,8.3c4.4,4,8.9,3.9,13.2-0.2
		c2.6-2.4,5.2-4.9,7.8-7.3c0.1-0.1,0.3-0.2,0.7-0.3c5.8,5.3,11.6,10.7,17.5,16.1c9,8.2,18,16.4,27,24.6c0,0.2,0,0.4,0,0.6
		c-0.9,0.2-1.9,0.5-2.8,0.5c-38,0-76,0-113.9,0c-0.9,0-1.9-0.3-2.8-0.5C12.2,117.1,12.2,116.9,12.2,116.7z"/>
	<path d="M12.2,33.7c4.5,4.2,9.1,8.3,13.6,12.5c9,8.4,17.9,16.9,27.1,25.6c-4,3.8-7.9,7.4-11.8,11c-9.6,8.9-19.3,17.8-28.9,26.7
		C12.2,84.2,12.2,58.9,12.2,33.7z"/>
	<path d="M131.8,109.4c-12-11-24-22.1-36.1-33.1c-1.4-1.3-2.9-2.7-4.6-4.2c4.1-3.9,8-7.6,11.9-11.3c9.6-9,19.1-18,28.7-27.1
		C131.8,58.9,131.8,84.2,131.8,109.4z"/>
	<path d="M131.7,26.2c-5.4,5.2-10.5,9.9-15.5,14.7c-13,12.4-26.1,24.7-39.1,37.1c-4.3,4.1-5.5,4.1-9.8,0
		C49.7,61.3,32,44.6,14.4,27.9c-0.5-0.4-0.9-0.9-1.7-1.8C52.4,26.2,91.8,26.2,131.7,26.2z"/>
</g>
</svg>
