<?xml version="1.0" encoding="utf-8"?>
<!-- Generator: Adobe Illustrator 23.0.4, SVG Export Plug-In . SVG Version: 6.00 Build 0)  -->
<svg version="1.1" id="Layer_1" xmlns="http://www.w3.org/2000/svg" xmlns:xlink="http://www.w3.org/1999/xlink" x="0px" y="0px"
	 viewBox="0 0 96.2 72.6" style="enable-background:new 0 0 96.2 72.6;" xml:space="preserve">
<g>
	<path d="M96.1,0.1c0.1,0.8,0.1,69.2,0.1,72c0,0.1,0,0.2,0,0.4c-0.2,0-0.3,0-0.5,0c-4,0.1-94.7,0-95.5-0.1c0-0.1-0.1-0.3-0.1-0.4
		c0-0.2,0-0.4,0-0.6C0,48,0,24.6,0,1.2C0,0.8,0,0.5,0.1,0.1c0.2,0,0.3-0.1,0.4-0.1C3.7-0.1,95.3,0,96.1,0.1z M11.6,6.8
		c0.2,0.4,0.5,0.6,0.7,0.8c9.3,9.5,18.7,18.9,28,28.4c1.6,1.6,3.1,3.2,4.7,4.8c0.4,0.4,0.9,0.8,1.4,1c1.8,0.8,4,0.3,5.1-1
		c0.1-0.1,0.1-0.1,0.2-0.2c11-11,21.9-22.1,32.9-33.1c0.1-0.1,0.2-0.2,0.4-0.4c0.1-0.1,0.1-0.1,0.1-0.3C84.5,6.7,12.5,6.7,11.6,6.8z
		 M11.6,65.8c0.3,0.1,0.7,0.1,1,0.1c23.7,0,47.4,0,71.1,0c0.2,0,0.5,0,0.7,0c0.1,0,0.2,0,0.3-0.1c-0.1-0.1-0.1-0.2-0.2-0.3
		c-7.9-8.1-15.7-16.1-23.6-24.2c0-0.1-0.1-0.1-0.2-0.1c-0.2,0.2-0.4,0.3-0.5,0.5c-1.3,1.3-2.5,2.6-3.8,3.8c-2.6,2.7-5.9,3.6-9.5,3.2
		c-2.5-0.3-4.7-1.4-6.5-3.2c-1.4-1.4-2.7-2.8-4.1-4.2c-0.1-0.1-0.2-0.3-0.5-0.3c-8,8.1-16,16.3-24,24.5
		C11.6,65.6,11.6,65.7,11.6,65.8z M6.8,11.7c-0.1,0.3-0.1,0.6-0.1,0.9c0,15.8,0,31.5,0,47.3c0,0.2,0,0.4,0,0.6c0,0.1,0,0.2,0.2,0.3
		c0.2-0.2,0.3-0.3,0.5-0.5c4.9-5,9.8-10,14.7-15c2.8-2.9,5.6-5.7,8.4-8.6c0.2-0.2,0.4-0.3,0.5-0.6C23,28,15,19.9,7,11.9
		C7,11.8,6.9,11.8,6.8,11.7z M89.4,12.3c-0.2,0.1-0.2,0.1-0.3,0.2c-7.9,7.9-15.8,15.9-23.6,23.8c0,0,0,0,0,0.1c0,0,0,0,0,0.1
		c0.2,0.2,0.4,0.4,0.6,0.6c5.7,5.8,11.4,11.6,17,17.5c2,2,4,4,5.9,6.1c0.1,0.1,0.2,0.3,0.4,0.2c0.1-0.8,0.2-38.6,0.1-47.8
		C89.4,12.8,89.4,12.6,89.4,12.3z"/>
</g>
</svg>
