<?xml version="1.0" encoding="utf-8"?>
<!-- Generator: Adobe Illustrator 23.0.4, SVG Export Plug-In . SVG Version: 6.00 Build 0)  -->
<svg version="1.1" id="Layer_1" xmlns="http://www.w3.org/2000/svg" xmlns:xlink="http://www.w3.org/1999/xlink" x="0px" y="0px"
	 viewBox="0 0 21.4 28.5" style="enable-background:new 0 0 21.4 28.5;" xml:space="preserve">
<g>
	<path d="M11.6,0c3.9,0,8,3.1,9.4,7.5c0.8,2.4,0.5,4.8-0.5,7.2c-1,2.4-2.3,4.7-3.7,6.8c-1.2,1.9-2.6,3.8-3.9,5.7
		c-1.2,1.7-3.2,1.6-4.4,0C6.1,23.9,3.9,20.6,2,17c-0.8-1.6-1.6-3.3-1.9-5.2C-0.1,10.7,0,9.6,0.2,8.5C1,5.3,2.7,3,5.5,1.4
		C7.1,0.4,8.9,0,11.6,0z M10.8,6.1c-2.5,0-4.5,2-4.5,4.4c0,2.5,2,4.5,4.4,4.5c2.5,0,4.5-2,4.5-4.4C15.2,8.1,13.2,6.1,10.8,6.1z"/>
</g>
</svg>
