<?xml version="1.0" encoding="utf-8"?>
<!-- Generator: Adobe Illustrator 23.0.4, SVG Export Plug-In . SVG Version: 6.00 Build 0)  -->
<svg version="1.1" id="Layer_1" xmlns="http://www.w3.org/2000/svg" xmlns:xlink="http://www.w3.org/1999/xlink" x="0px" y="0px"
	 viewBox="0 0 24 24" style="enable-background:new 0 0 24 24;" xml:space="preserve">
<style type="text/css">
	.st0{fill:#010101;}
</style>
<g>
	<path class="st0" d="M20.5,3.5c-4.7-4.7-12.3-4.7-17,0c-4.7,4.7-4.7,12.3,0,17C5.9,22.8,8.9,24,12,24c3.1,0,6.1-1.2,8.5-3.5
		C25.2,15.8,25.2,8.2,20.5,3.5z M19.1,19.1C15.2,23,8.8,23,4.9,19.1C1,15.2,1,8.8,4.9,4.9C6.9,3,9.4,2,12,2c2.6,0,5.1,1,7.1,2.9
		C23,8.8,23,15.2,19.1,19.1z"/>
	<path class="st0" d="M17,11h-4V7c0-0.6-0.4-1-1-1s-1,0.4-1,1v4H7c-0.6,0-1,0.4-1,1s0.4,1,1,1h4v4c0,0.6,0.4,1,1,1s1-0.4,1-1v-4h4
		c0.6,0,1-0.4,1-1S17.6,11,17,11z"/>
</g>
</svg>
