<?xml version="1.0" encoding="utf-8"?>
<!-- Generator: Adobe Illustrator 23.0.4, SVG Export Plug-In . SVG Version: 6.00 Build 0)  -->
<svg version="1.1" id="Layer_1" xmlns="http://www.w3.org/2000/svg" xmlns:xlink="http://www.w3.org/1999/xlink" x="0px" y="0px"
	 viewBox="0 0 80 80" style="enable-background:new 0 0 80 80;" xml:space="preserve">
<path d="M78.8,0.5c1,0.7,1.4,1.7,1.2,2.9L68.5,71.9c-0.1,0.9-0.6,1.5-1.4,2c-0.4,0.2-0.9,0.4-1.4,0.4c-0.3,0-0.7-0.1-1.1-0.2
	l-20.2-8.3L33.6,79c-0.5,0.7-1.3,1-2.2,1c-0.4,0-0.7-0.1-1-0.2c-0.6-0.2-1-0.6-1.4-1c-0.3-0.5-0.5-1-0.5-1.6V61.6l38.6-47.3
	L19.4,55.6L1.8,48.3c-1.1-0.4-1.7-1.2-1.8-2.5c-0.1-1.2,0.4-2.1,1.4-2.6L75.7,0.4C76.2,0.1,76.6,0,77.1,0C77.7,0,78.3,0.2,78.8,0.5z
	"/>
</svg>
