<?xml version="1.0" encoding="utf-8"?>
<!-- Generator: Adobe Illustrator 25.2.1, SVG Export Plug-In . SVG Version: 6.00 Build 0)  -->
<svg version="1.1" id="Layer_1" xmlns="http://www.w3.org/2000/svg" xmlns:xlink="http://www.w3.org/1999/xlink" x="0px" y="0px"
	 viewBox="0 0 89.5 71.7" style="enable-background:new 0 0 89.5 71.7;" xml:space="preserve">
<style type="text/css">
	.st0{fill:#000333;}
</style>
<g>
	<path class="st0" d="M25.3,55.9l2.1-4.5c-0.8,0.5-1.7,0.8-2.7,1c-3.5,0.7-7.8-0.3-11.7-3c-2.9-2.1-5.4-5.5-7.4-11.2
		c-0.4-1.1-0.7-2.3-1-3.5H1.3v20.5h3l0.1-0.5l0.1-0.4l0.1-0.4L5,53.2c1-2,1.6-2.1,4.8-0.6c0.8,0.4,1.6,0.7,2.4,1
		C17.1,55.4,21.4,56.1,25.3,55.9z"/>
	<path class="st0" d="M14.4,32.5c1.1,0.5,2.4,1,3.5,1.3c8.3,2.7,10.9,4.5,13,7.8c0.2,0.4,0.3,0.7,0.5,1.1l6.7-14.5
		c-0.5-0.5-0.9-1-1.4-1.4c-2-1.7-3.9-2.8-9-4.8c-1.2-0.5-2.4-1-3.8-1.3c-9-2.8-11.5-4.9-12.1-8c-1-5.2,2.3-8.5,8.6-7.9
		c6.1,0.5,11.3,4.7,14.7,13.1c0.3,0.7,0.5,1.3,0.7,2h3.4V2h-3l-0.1,0.4l-0.2,0.3v0.1l-0.4,0.7c-0.9,1.5-1.8,2-3,1.4l-0.4-0.2
		l-1.8-0.8c-0.8-0.4-1.6-0.7-2.4-1c-7.4-2.4-13.7-2.3-19-0.1C0.2,6.6-2.9,17.4,3,25.1C5.2,28.1,7.8,29.8,14.4,32.5z"/>
	<path class="st0" d="M73.7,21.9V24h3.5c0.1,0,0.2,0,0.7,0.2c1,0.4,1.4,1,1.1,2.1L78.9,27l-0.1,0.2L70.5,52l-7-24.8v-0.1l-0.2-0.8
		c-0.3-1.1,0.1-1.8,1.2-2.1C65,24,65.1,24,65.2,24h3.5v-2.2h-22V24h3.5l0.1,0.2l0.3,0.4l0.1,0.3c0.1,0.3,0.3,0.7,0.5,1.5l0.2,0.8
		l2.4,7.9l-5.9,17L42,30.9l-7.1,15.4l5.8,19.2h6.8l8.3-24.6l7.5,24.6h6.4l13-38.3l0.1-0.4l0.2-0.4c0.4-1.2,1.1-1.7,2.3-2.1l0.6-0.2
		H86h3.5v-2.2H73.7z"/>
	<polygon class="st0" points="54.2,0.1 53.4,-0.3 20.5,71.4 20.4,71.6 21.2,72 54.1,0.3 	"/>
</g>
</svg>
