<?xml version="1.0" encoding="utf-8"?>
<!-- Generator: Adobe Illustrator 23.0.4, SVG Export Plug-In . SVG Version: 6.00 Build 0)  -->
<svg version="1.1" id="Layer_1" xmlns="http://www.w3.org/2000/svg" xmlns:xlink="http://www.w3.org/1999/xlink" x="0px" y="0px"
	 viewBox="0 0 122.9 61.2" style="enable-background:new 0 0 122.9 61.2;" xml:space="preserve">
<g>
	<path d="M41.5,50c-0.2,3.4-0.4,6.8-0.6,10.3c0,0.3-0.3,0.9-0.4,0.9c-0.5,0-1.2,0-1.5-0.3c-2.3-1.9-4.6-3.9-6.8-6
		c-3.3-3.2-6.4-6.6-9.5-9.9c-0.5-0.5-1.1-1.6-1.4-1.5c-1.9,0.5-1.7-1.1-2.2-2c-0.3-0.5-0.6-1-1-1.3c-1.5-1.2-3-2.4-4.5-3.6
		c-1.8-1.5-3.5-3-5.1-4.7c-2.5-2.7-5.4-5.1-6.7-8.8c-0.1-0.3-0.5-0.6-0.7-0.8c-1.3-1.1-1.3-2.2,0.2-3c3.2-1.6,6.1-3.5,9.7-4.5
		c3.2-0.8,6-2.9,9-4.5c2.9-1.6,5.8-3.2,8.7-4.9c1.6-0.9,3.4-1.6,4.7-2.8c1.8-1.6,3.9-2,6-2.6c1-0.3,1.6,0.3,1.6,1.3
		c-0.1,1.4-0.4,2.8-0.5,4.3c0,2.7,0,5.4,0.1,8.2c1.2,0,2.1,0,3-0.1c5.4-0.5,10.7-1.3,16.1-1.5c6-0.2,11.9,0.4,17.9,0.5
		c7.1,0.1,14.3,0.2,21.4,0c6.9-0.2,13.8-0.7,20.7-1c1.4-0.1,2.1,0.4,2.1,1.9c0,5.1,0.3,10.3,0,15.4c-0.2,3.4,0.6,6.7,1.1,9.9
		c0.3,1.5-0.1,2.1-1.4,2.1c-4.2,0-8.4-0.1-12.6-0.3c-2.3-0.1-4.5-0.3-6.8-0.5c-3.1-0.3-6.2-0.6-9.4-1c-1.5-0.2-2.9-0.7-4.4-0.7
		c-6,0.3-12,0.8-18.1,1.3c-9.5,0.7-19.1,1.4-28.6,2C41.6,44.5,41.6,47.2,41.5,50z M63.7,27.5c-0.4-1.2-1.6-2.1-2.3-3.3
		c-0.5-0.9-0.9-1.9-1.5-2.7c-0.3,5.2,2.5,9.4,4.6,13.8c0.2-0.1,0.4-0.1,0.6-0.2C64.7,32.5,64.4,29.9,63.7,27.5z M27.7,25.1
		c0.2,6.2,0.8,12.4,4.1,17.9C31,36.9,29.5,31,27.7,25.1z M99.9,33.5c0,0.5-0.4,1-0.8,1.3c-0.2,0.1-1-0.2-1.1-0.6
		c-1-1.9-2-3.8-2.9-5.7c-0.2-0.3-0.4-0.6-0.5-1c-0.2,0-0.4,0.1-0.5,0.1c0.5,2.6,1,5.2,1.5,8.1c1.8,0,4.1-0.1,6.6-0.2
		c-0.7-1.7-1.4-3.1-2-4.6c-0.1,0-0.3,0-0.4,0C99.9,31.8,100,32.7,99.9,33.5z M34.5,20.5c-0.2,0-0.3,0-0.5,0c-0.1,1,0.1,2.1-0.2,2.9
		c-2,4.2,1.3,7.6,1.1,11.5c0.3,0,0.5,0,0.8-0.1C35.2,30,34.9,25.2,34.5,20.5z M51.4,29.5c0.9,2.2,1.7,4.3,2.6,6.5
		c0.1,0.3,0.6,0.4,1,0.7c0.1-0.4,0.4-0.8,0.3-1.1c-0.5-3.2-1.1-6.4-1.7-9.6C53.1,29.1,53.1,29.1,51.4,29.5z M37.2,53.8
		c-0.5-0.5-1.2-1.1-1.4-1.8c-0.7-2.5-1.2-5-1.8-7.5c-0.2,0-0.3,0.1-0.5,0.1c0.5,2.8,1.3,5.5,1.4,8.3c0.2,2.6,1.7,3.6,3.8,4.6
		C39.6,55.6,38.2,54.8,37.2,53.8z M81.8,19.8c-0.8,1.7,1.4,9.5,3.3,11.6C85,27.4,83.3,21.7,81.8,19.8z M68.2,26.3
		c-0.9,0.5-1.4,0.8-2.1,1.2c1.1,2.5,2.2,5,3.4,7.4c0.3-0.1,0.5-0.1,0.8-0.2C69.5,32,68.9,29.3,68.2,26.3z M32,52.9
		c0.3-0.1,0.6-0.2,0.9-0.3c-1.2-3.9-2.3-7.7-3.5-11.6c-0.2,0.1-0.4,0.2-0.7,0.2C29.6,45.2,30,49.2,32,52.9z M75.6,37.1
		c1.8,0,3.5-0.1,5.6-0.1c-0.4-1-0.7-1.6-0.9-2.1c-0.6,0.6-1.3,1.5-1.6,1.4c-0.7-0.2-1.3-0.9-1.7-1.5c-0.8-1.3-1.5-2.7-2.2-4
		c-0.1,0-0.2,0.1-0.3,0.1C74.9,32.9,75.2,34.9,75.6,37.1z M102.1,31c-0.6-3.5,0.2-7.3-2.7-10.5C99.6,24.4,100.3,27.9,102.1,31z
		 M103.9,35.8c0.5,0,1.5,0.1,2.5,0.1c-1-3-1.9-5.7-2.8-8.5c-0.1,0-0.1,0-0.2,0C103.7,30.1,103.8,32.8,103.9,35.8z M108.2,36
		c0.7,0,1.8,0,2.8,0c-0.7-2.4-1.4-4.7-2-6.9c-0.1,0-0.3,0.1-0.4,0.1C108.5,31.4,108.4,33.6,108.2,36z M77.9,20.6
		c-0.6,1.5,2.3,10.9,3.5,12.3c0.2,0,0.3-0.1,0.5-0.1C80.5,28.6,79.2,24.6,77.9,20.6z M37.5,38.8c-1.5,0.8-1.7,1.4-1.4,2.6
		c0.7,2.3,1.2,4.7,1.7,7c0.2,0,0.4,0,0.5-0.1C38.1,45.2,37.8,42.1,37.5,38.8z M87.3,33.3c-1.8,2.1-1.8,2.1-3.8-0.4
		c0.1,3.9,0.6,4.3,5.3,2.9C88.3,34.9,87.8,34.1,87.3,33.3z M87.6,24.3c-1.9,3.5-0.1,5.9,1.5,8.4C88.7,30,88.2,27.2,87.6,24.3z
		 M56.6,23.9c-0.1,0-0.3,0.1-0.4,0.1c1.1,3.7,2.2,7.3,3.4,11c0.2,0,0.3-0.1,0.5-0.1C60.4,30.7,57.6,27.6,56.6,23.9z M51.8,39.3
		c0.5,0,1.2,0,2.2,0.1c-1.1-2.6-2.1-5-3.1-7.3c-0.1,0-0.3,0.1-0.4,0.1C50.9,34.5,51.4,36.8,51.8,39.3z M47.6,20
		c-0.1,0-0.3,0.1-0.4,0.1c0.4,2,0.6,4,1.2,5.9c0.1,0.4,1.1,0.7,1.7,1c0.1-0.1,0.2-0.2,0.4-0.4C49.4,24.4,48.5,22.2,47.6,20z
		 M93.4,36c-1-2.3-2-4.5-3-6.7c-0.1,0-0.1,0-0.2,0c0.2,1.1,0.5,2.2,0.6,3.3c0,1.1-0.3,2.2-0.4,3.4C91.2,36,92.3,36,93.4,36z
		 M18.1,15.4c2.8,0.5,2.8,2.6,3.5,4.2c0.1,0,0.3,0,0.4-0.1c-0.2-1.8-0.3-3.6-0.5-5.9C20.3,14.3,19.4,14.8,18.1,15.4z M11.6,19.4
		c-3.5,0.9-4,2.3-1.6,4.9c0.6-1-1.1-3.4,2-2.9C11.9,20.6,11.7,20,11.6,19.4z M48.5,18.6c0.8,2.1,1.6,3.9,2.3,5.8
		c0.2,0,0.3-0.1,0.5-0.1c-0.2-1.8-0.5-3.6-0.8-5.7C49.9,18.6,49.3,18.6,48.5,18.6z M115,22.1c-0.5,2.7,0.2,3.5,3.7,4.5
		c0.1-0.1,0.3-0.3,0.4-0.4C117.7,24.9,116.5,23.6,115,22.1z M57,36.1c0,0.2,0.3,0.4,0.4,0.4c0.2,0,0.5-0.1,1-0.2
		c-0.7-2.3-1.4-4.5-2-6.6c-0.2,0-0.3,0.1-0.5,0.1C56.3,32,56.6,34.1,57,36.1z M111.3,30.5c-0.2-2.7-0.5-5.4-0.7-8.1
		C109.4,25.2,109.5,27.9,111.3,30.5z M7.9,28.6c1.3,1.3,2.5,2.4,3.9,3.8c0.6-2.5-1.7-3.1-1.9-4.9C9,28.1,8.5,28.3,7.9,28.6z
		 M106.4,31.1c0.2-0.1,0.3-0.1,0.5-0.2c-0.2-2.4,0-5-2.9-6.9C104.9,26.6,105.7,28.9,106.4,31.1z M118.8,39c0.2,0,0.5-0.4,0.5-0.6
		c0-0.2-0.3-0.6-0.4-0.6c-1.4-0.1-2.7-0.1-4.1-0.1c-0.3,0-0.5,0.7-0.8,1c0.1,0.2,0.1,0.3,0.2,0.5C115.7,39.2,117.2,39.2,118.8,39z
		 M102,21.6c0.2,0,0.4-0.1,0.6-0.1c-0.1-1.2,0-2.5-0.3-3.7c-0.1-0.3-1.3-0.4-2-0.5c-0.1,0.2-0.2,0.4-0.2,0.5
		C100.7,19.1,101.4,20.3,102,21.6z M77.5,32.4c0.6-2.5-0.4-4.7-2.9-5.5C75.5,28.7,76.4,30.4,77.5,32.4z M19.5,26.1
		c-0.9,1.5-0.6,2.7,1.3,5.5C20.2,29.8,21.8,27.5,19.5,26.1z M93,32c0.2-0.1,0.4-0.1,0.6-0.2c-0.5-2.2-0.4-4.6-2.2-6.4
		c-0.2,0.1-0.3,0.1-0.5,0.2C91.6,27.7,92.3,29.8,93,32z M25.5,13.7c-0.2-1.3-0.8-1.7-1.9-0.9c0.7,1.7,1.3,3.4,2,5.1
		c0.1,0,0.2-0.1,0.3-0.1C25.8,16.4,25.7,15,25.5,13.7z M118.9,34.4c0-0.7,0.2-1.8-0.1-1.9c-1.1-0.5-2.3-0.7-3.5-1.1
		c-0.1,0.2-0.2,0.4-0.3,0.6C116.3,32.8,117.5,33.5,118.9,34.4z M68.6,18.9c0-0.2-0.6-0.2-1.2-0.4c0.6,2.3,1.2,4.2,1.7,6.1
		c0.2,0,0.4-0.1,0.6-0.1C69.3,22.6,69,20.8,68.6,18.9z M42.6,34.8c0.2,0,0.3,0,0.5-0.1c-0.4-2.4-0.9-4.8-1.4-7.6
		C41.1,30.1,41.5,32.5,42.6,34.8z M21.2,37.5c-0.8-2.1-1.6-4.1-2.4-6.2C18.5,34,19.5,36.9,21.2,37.5z M115.3,27.5
		c-0.7,2.4-0.2,2.9,3.1,2.6C117.2,29.1,116.3,28.3,115.3,27.5z M72.8,33c0.2,0,0.3-0.1,0.5-0.1c-0.5-2-1-3.9-1.5-5.9
		c-0.2,0-0.3,0.1-0.5,0.1C71,29.2,72.3,31,72.8,33z M84.9,19.2c-0.1-0.3-0.7-0.4-1.1-0.6c-0.1,0.4-0.3,0.8-0.2,1.1
		c0.4,1,0.9,2,1.4,3c0.2-0.1,0.4-0.1,0.6-0.2C85.4,21.4,85.2,20.3,84.9,19.2z M23.7,38.6c-0.6,0.2-1.2,0.4-1.9,0.6
		c0.7,1,1.3,1.9,2,2.9c0.2-0.1,0.3-0.1,0.5-0.2C24.1,40.8,23.9,39.7,23.7,38.6z M33.5,38.9c0.1,0.3,0.7,0.6,1.1,0.9
		c0-0.4,0.2-0.9,0.1-1.2c-0.3-1-0.8-2-1.2-3c-0.1,0-0.2,0-0.2,0C33.3,36.7,33.3,37.8,33.5,38.9z M95.1,23.1c0.6-1.6,0.2-4.4-0.9-5
		C94.5,19.8,94.8,21.3,95.1,23.1z M57.7,22.2c0.6-3,0.2-3.9-1.5-3.5C56.7,19.8,57.2,21,57.7,22.2z M97.5,30.4c0.1,0,0.3,0,0.4-0.1
		c-0.2-1.1-0.4-2.3-0.7-3.7C95.6,28.3,97.2,29.3,97.5,30.4z M44.8,26.1c0.3-0.1,0.5-0.1,0.8-0.2c-0.5-1.4-0.9-2.8-1.4-4.2
		c-0.2,0-0.4,0.1-0.6,0.1C44,23.3,44.4,24.7,44.8,26.1z M72.2,19c-0.2,0-0.4,0.1-0.6,0.1c0.4,1.6,0.8,3.2,1.2,4.8
		c0.1,0,0.2-0.1,0.4-0.1C72.8,22.2,72.5,20.6,72.2,19z M68.5,36.8c-0.5-1.1-0.9-2.1-1.4-3.1C66.5,36.1,66.8,36.7,68.5,36.8z
		 M6.8,19.2c-0.1-0.2-0.2-0.4-0.3-0.5c-1.3,0.7-2.7,1.5-4,2.2c0.1,0.2,0.2,0.4,0.3,0.6C4.1,20.7,5.5,20,6.8,19.2z M84.7,14.9
		c0,0.2,0,0.4,0,0.6c1.8-0.1,3.6-0.2,5.4-0.2c0-0.1,0-0.3,0-0.4C88.3,14.9,86.5,14.9,84.7,14.9z M62.2,22.2c0.3-2.5-0.3-3.6-1.8-3.6
		C61.1,19.9,61.6,20.9,62.2,22.2z M14.7,28.2c0.6,0.9,1.1,1.6,1.6,2.4C16.6,28.1,16.5,28,14.7,28.2z M108.1,38.1c0,0.1,0,0.3,0,0.4
		c1.7,0.2,3.3,0.4,5,0.6c0-0.2,0.1-0.5,0.1-0.7C111.4,38.3,109.7,38.2,108.1,38.1z M31.4,10.3c0-0.2-0.1-0.7-0.2-1.4
		c-0.9,1-2.4,0.9-2.3,2.5C29.9,10.9,30.6,10.7,31.4,10.3z M117.6,20.3c-1-0.8-1.8-1.4-2.6-2.1C114.8,19.8,115.2,20.2,117.6,20.3z
		 M16.5,16.7c-1,0.7-0.8,1.5,0.7,3.2C17,18.8,16.8,17.8,16.5,16.7z M63.4,36.4c-0.4-0.9-0.8-1.6-1.4-2.7
		C61.7,36,61.9,36.4,63.4,36.4z M103.3,38.1c0-0.2,0-0.3,0-0.5c-1.4,0-2.7-0.1-4.1-0.1c0,0.2,0,0.4,0,0.7
		C100.6,38.2,102,38.2,103.3,38.1z"/>
</g>
</svg>
