<?xml version="1.0" encoding="utf-8"?>
<!-- Generator: Adobe Illustrator 23.0.4, SVG Export Plug-In . SVG Version: 6.00 Build 0)  -->
<svg version="1.1" id="Layer_1" xmlns="http://www.w3.org/2000/svg" xmlns:xlink="http://www.w3.org/1999/xlink" x="0px" y="0px"
	 viewBox="0 0 122.9 61.2" style="enable-background:new 0 0 122.9 61.2;" xml:space="preserve">
<g>
	<path d="M81.2,42c-9.5-0.7-19-1.4-28.6-2c-6-0.4-12-0.9-18.1-1.3c-1.4-0.1-2.9,0.5-4.4,0.7c-3.1,0.4-6.2,0.7-9.4,1
		c-2.2,0.2-4.5,0.4-6.8,0.5C9.9,41,5.7,41.1,1.5,41.1c-1.2,0-1.7-0.6-1.4-2.1c0.6-3.3,1.3-6.5,1.1-9.9c-0.3-5.1,0-10.2,0-15.4
		c0-1.5,0.7-1.9,2.1-1.9c6.9,0.4,13.8,0.8,20.7,1c7.1,0.2,14.3,0.1,21.4,0c6-0.1,11.9-0.6,17.9-0.5c5.4,0.1,10.7,1,16.1,1.5
		c0.9,0.1,1.9,0.1,3,0.1c0-2.8,0.1-5.5,0.1-8.2c0-1.4-0.4-2.8-0.5-4.3c-0.1-1,0.5-1.6,1.6-1.3c2.1,0.5,4.3,0.9,6,2.6
		c1.3,1.2,3.1,1.9,4.7,2.8c2.9,1.6,5.7,3.3,8.7,4.9c3,1.6,5.8,3.7,9,4.5c3.6,0.9,6.6,2.8,9.7,4.5c1.5,0.8,1.6,1.9,0.2,3
		c-0.3,0.2-0.6,0.5-0.7,0.8c-1.3,3.6-4.2,6.1-6.7,8.8c-1.6,1.7-3.4,3.2-5.1,4.7c-1.4,1.3-3,2.4-4.5,3.6c-0.4,0.3-0.7,0.8-1,1.3
		c-0.5,0.8-0.3,2.4-2.2,2c-0.3-0.1-0.9,1-1.4,1.5c-3.2,3.3-6.3,6.7-9.5,9.9c-2.1,2.1-4.5,4-6.8,6c-0.4,0.3-1,0.3-1.5,0.3
		c-0.2,0-0.4-0.6-0.4-0.9c-0.2-3.4-0.5-6.8-0.6-10.3C81.3,47.2,81.3,44.5,81.2,42z M57.7,35c0.2,0.1,0.4,0.1,0.6,0.2
		c2-4.4,4.9-8.5,4.6-13.8c-0.6,0.9-1,1.9-1.5,2.7c-0.7,1.1-1.9,2.1-2.3,3.3C58.5,29.9,58.2,32.5,57.7,35z M91.1,43
		c3.3-5.5,3.9-11.7,4.1-17.9C93.4,31,92,36.9,91.1,43z M23.1,31c-0.1,0-0.3,0-0.4,0c-0.6,1.5-1.3,3-2,4.6c2.5,0.1,4.8,0.1,6.6,0.2
		c0.5-2.9,1-5.5,1.5-8.1c-0.2,0-0.4-0.1-0.5-0.1c-0.2,0.3-0.4,0.6-0.5,1c-1,1.9-1.9,3.9-2.9,5.7c-0.2,0.3-1,0.7-1.1,0.6
		C23.4,34.6,23,34,23,33.5C22.9,32.7,23.1,31.8,23.1,31z M87.3,34.8c0.3,0,0.5,0,0.8,0.1c-0.1-3.9,3.1-7.3,1.1-11.5
		c-0.4-0.8-0.2-1.9-0.2-2.9c-0.2,0-0.3,0-0.5,0C88.1,25.2,87.7,30,87.3,34.8z M69.3,25.9c-0.6,3.2-1.2,6.4-1.7,9.6
		c-0.1,0.3,0.2,0.7,0.3,1.1c0.3-0.2,0.8-0.4,1-0.7c0.9-2.1,1.7-4.3,2.6-6.5C69.8,29.1,69.8,29.1,69.3,25.9z M84.2,57.5
		c2-1,3.6-2,3.8-4.6c0.2-2.8,0.9-5.5,1.4-8.3c-0.2,0-0.3-0.1-0.5-0.1c-0.6,2.5-1.1,5-1.8,7.5c-0.2,0.7-0.8,1.3-1.4,1.8
		C84.8,54.8,83.3,55.6,84.2,57.5z M37.8,31.4c1.9-2.2,4.1-10,3.3-11.6C39.6,21.7,38,27.4,37.8,31.4z M52.8,34.8
		c0.3,0.1,0.5,0.1,0.8,0.2c1.1-2.4,2.2-4.9,3.4-7.4c-0.7-0.4-1.3-0.7-2.1-1.2C54.1,29.3,53.4,32,52.8,34.8z M94.2,41.2
		c-0.2-0.1-0.4-0.2-0.7-0.2c-1.2,3.9-2.3,7.7-3.5,11.6c0.3,0.1,0.6,0.2,0.9,0.3C92.9,49.2,93.4,45.2,94.2,41.2z M48.4,30.9
		c-0.1,0-0.2-0.1-0.3-0.1c-0.7,1.3-1.4,2.7-2.2,4c-0.4,0.6-1.1,1.3-1.7,1.5c-0.4,0.1-1-0.9-1.6-1.4c-0.2,0.5-0.5,1.1-0.9,2.1
		c2.1,0.1,3.8,0.1,5.6,0.1C47.7,34.9,48.1,32.9,48.4,30.9z M23.5,20.6c-2.9,3.2-2.1,7-2.7,10.5C22.6,27.9,23.4,24.4,23.5,20.6z
		 M19.4,27.5c-0.1,0-0.1,0-0.2,0c-0.9,2.7-1.8,5.5-2.8,8.5c1.1-0.1,2-0.1,2.5-0.1C19.1,32.8,19.3,30.1,19.4,27.5z M14.3,29.2
		c-0.1,0-0.3-0.1-0.4-0.1c-0.7,2.3-1.3,4.5-2,6.9c1,0,2.1,0,2.8,0C14.6,33.6,14.4,31.4,14.3,29.2z M41.1,32.7c0.2,0,0.3,0.1,0.5,0.1
		c1.2-1.4,4.1-10.8,3.5-12.3C43.7,24.6,42.4,28.6,41.1,32.7z M84.6,48.3c0.2,0,0.4,0,0.5,0.1c0.6-2.3,1-4.7,1.7-7
		c0.4-1.2,0.1-1.8-1.4-2.6C85.2,42.1,84.9,45.2,84.6,48.3z M34.1,35.8c4.8,1.3,5.2,1,5.3-2.9c-2,2.5-2,2.5-3.8,0.4
		C35.1,34.1,34.6,34.9,34.1,35.8z M33.7,32.7c1.7-2.5,3.5-4.9,1.5-8.4C34.7,27.2,34.2,30,33.7,32.7z M62.9,34.9
		c0.2,0,0.3,0.1,0.5,0.1c1.1-3.7,2.2-7.3,3.4-11c-0.1,0-0.3-0.1-0.4-0.1C65.3,27.6,62.5,30.7,62.9,34.9z M72.4,32.2
		c-0.1,0-0.3-0.1-0.4-0.1c-1,2.4-2,4.7-3.1,7.3c0.9,0,1.7-0.1,2.2-0.1C71.6,36.8,72,34.5,72.4,32.2z M72.6,26.6
		c0.1,0.1,0.2,0.2,0.4,0.4c0.6-0.3,1.6-0.5,1.7-1c0.5-1.9,0.8-4,1.2-5.9c-0.1,0-0.3-0.1-0.4-0.1C74.4,22.2,73.5,24.4,72.6,26.6z
		 M32.5,36c-0.2-1.2-0.5-2.3-0.4-3.4c0-1.1,0.4-2.2,0.6-3.3c-0.1,0-0.1,0-0.2,0c-1,2.2-1.9,4.3-3,6.7C30.6,36,31.7,36,32.5,36z
		 M101.4,13.7c-0.2,2.3-0.4,4.1-0.5,5.9c0.1,0,0.3,0,0.4,0.1c0.8-1.6,0.7-3.7,3.5-4.2C103.5,14.8,102.6,14.3,101.4,13.7z
		 M110.9,21.4c3.1-0.5,1.3,1.9,2,2.9c2.3-2.6,1.9-4-1.6-4.9C111.2,20,111.1,20.6,110.9,21.4z M72.4,18.6c-0.3,2-0.5,3.8-0.8,5.7
		c0.2,0,0.3,0.1,0.5,0.1c0.7-1.9,1.5-3.7,2.3-5.8C73.6,18.6,73.1,18.6,72.4,18.6z M3.9,26.1c0.1,0.1,0.3,0.3,0.4,0.4
		c3.4-1,4.2-1.7,3.7-4.5C6.5,23.6,5.2,24.9,3.9,26.1z M67,29.9c-0.2,0-0.3-0.1-0.5-0.1c-0.7,2.2-1.3,4.3-2,6.6
		c0.5,0.1,0.7,0.2,1,0.2c0.2,0,0.4-0.3,0.4-0.4C66.3,34.1,66.7,32,67,29.9z M12.4,22.4c-0.2,2.7-0.5,5.4-0.7,8.1
		C13.4,27.9,13.5,25.2,12.4,22.4z M113,27.6c-0.2,1.8-2.4,2.4-1.9,4.9c1.4-1.4,2.6-2.6,3.9-3.8C114.4,28.3,113.9,28.1,113,27.6z
		 M18.9,24C16,26,16.2,28.5,16,31c0.2,0.1,0.3,0.1,0.5,0.2C17.3,28.9,18,26.6,18.9,24z M8.8,39.3C8.9,39.2,8.9,39,9,38.8
		c-0.3-0.4-0.5-1-0.8-1c-1.4-0.1-2.7,0-4.1,0.1c-0.2,0-0.4,0.4-0.4,0.6C3.7,38.7,4,39,4.1,39C5.7,39.2,7.3,39.2,8.8,39.3z
		 M22.9,17.8c-0.1-0.2-0.2-0.4-0.2-0.5c-0.7,0.2-2,0.2-2,0.5c-0.3,1.2-0.2,2.5-0.3,3.7c0.2,0,0.4,0.1,0.6,0.1
		C21.6,20.3,22.2,19.1,22.9,17.8z M48.4,26.9c-2.5,0.8-3.5,2.9-2.9,5.5C46.5,30.4,47.4,28.7,48.4,26.9z M102.1,31.6
		c2-2.7,2.2-4,1.3-5.5C101.1,27.5,102.7,29.8,102.1,31.6z M32,25.6c-0.2-0.1-0.3-0.1-0.5-0.2c-1.7,1.8-1.7,4.2-2.2,6.4
		c0.2,0.1,0.4,0.1,0.6,0.2C30.6,29.8,31.3,27.7,32,25.6z M97,17.7c0.1,0,0.2,0.1,0.3,0.1c0.7-1.7,1.3-3.4,2-5.1
		c-1.2-0.8-1.8-0.4-1.9,0.9C97.2,15,97.1,16.4,97,17.7z M7.8,32.1c-0.1-0.2-0.2-0.4-0.3-0.6C6.3,31.8,5.1,32,4,32.5
		c-0.2,0.1,0,1.1-0.1,1.9C5.4,33.5,6.6,32.8,7.8,32.1z M53.2,24.5c0.2,0,0.4,0.1,0.6,0.1c0.5-1.9,1.1-3.8,1.7-6.1
		c-0.6,0.2-1.2,0.3-1.2,0.4C53.9,20.8,53.6,22.6,53.2,24.5z M81.2,27.1c-0.5,2.9-1,5.2-1.4,7.6c0.2,0,0.3,0,0.5,0.1
		C81.4,32.5,81.8,30.1,81.2,27.1z M104.1,31.3c-0.8,2.1-1.6,4.1-2.4,6.2C103.4,36.9,104.5,34,104.1,31.3z M4.6,30.1
		c3.3,0.4,3.8-0.1,3.1-2.6C6.7,28.3,5.8,29.1,4.6,30.1z M51.6,27.1c-0.2,0-0.3-0.1-0.5-0.1c-0.5,2-1,3.9-1.5,5.9
		c0.2,0,0.3,0.1,0.5,0.1C50.6,31,51.9,29.2,51.6,27.1z M37.4,22.5c0.2,0.1,0.4,0.1,0.6,0.2c0.5-1,1-2,1.4-3c0.1-0.3-0.1-0.7-0.2-1.1
		c-0.4,0.2-1,0.3-1.1,0.6C37.7,20.3,37.6,21.4,37.4,22.5z M98.6,41.9c0.2,0.1,0.3,0.1,0.5,0.2c0.7-1,1.3-1.9,2-2.9
		c-0.7-0.2-1.3-0.4-1.9-0.6C99,39.7,98.8,40.8,98.6,41.9z M89.7,35.6c-0.1,0-0.2,0-0.2,0c-0.4,1-0.8,2-1.2,3c-0.1,0.4,0,0.8,0.1,1.2
		c0.4-0.3,1-0.5,1.1-0.9C89.6,37.8,89.6,36.7,89.7,35.6z M28.7,18c-1.1,0.7-1.6,3.4-0.9,5C28.1,21.3,28.4,19.8,28.7,18z M66.8,18.7
		c-1.8-0.4-2.2,0.5-1.5,3.5C65.8,21,66.3,19.8,66.8,18.7z M25.7,26.7c-0.3,1.4-0.5,2.5-0.7,3.7c0.1,0,0.3,0,0.4,0.1
		C25.7,29.3,27.3,28.3,25.7,26.7z M79.3,21.8c-0.2,0-0.4-0.1-0.6-0.1c-0.5,1.4-0.9,2.8-1.4,4.2c0.3,0.1,0.5,0.1,0.8,0.2
		C78.6,24.7,78.9,23.3,79.3,21.8z M49.8,23.8c0.1,0,0.2,0.1,0.4,0.1c0.4-1.6,0.8-3.2,1.2-4.8c-0.2,0-0.4-0.1-0.6-0.1
		C50.4,20.6,50.1,22.2,49.8,23.8z M55.8,33.7c-0.4,1-0.9,2-1.4,3.1C56.2,36.7,56.4,36.1,55.8,33.7z M120.1,21.5
		c0.1-0.2,0.2-0.4,0.3-0.6c-1.3-0.7-2.7-1.5-4-2.2c-0.1,0.2-0.2,0.4-0.3,0.5C117.5,20,118.8,20.7,120.1,21.5z M32.9,14.9
		c0,0.1,0,0.3,0,0.4c1.8,0.1,3.6,0.2,5.4,0.2c0-0.2,0-0.4,0-0.6C36.4,14.9,34.6,14.9,32.9,14.9z M62.5,18.6c-1.5,0-2,1.1-1.8,3.6
		C61.4,20.9,61.9,19.9,62.5,18.6z M106.6,30.6c0.5-0.7,1-1.5,1.6-2.4C106.4,28,106.3,28.1,106.6,30.6z M9.8,38.4
		c0,0.2,0.1,0.5,0.1,0.7c1.7-0.2,3.3-0.4,5-0.6c0-0.1,0-0.3,0-0.4C13.2,38.2,11.5,38.3,9.8,38.4z M94,11.4c0.1-1.6-1.4-1.6-2.3-2.5
		c-0.1,0.8-0.1,1.2-0.2,1.4C92.3,10.7,93,10.9,94,11.4z M8,18.2c-0.9,0.7-1.6,1.3-2.6,2.1C7.8,20.2,8.2,19.8,8,18.2z M105.6,19.9
		c1.6-1.7,1.7-2.4,0.7-3.2C106.1,17.8,105.9,18.8,105.6,19.9z M60.9,33.7c-0.5,1.1-0.9,1.8-1.4,2.7C61.1,36.4,61.3,36,60.9,33.7z
		 M23.7,38.2c0-0.2,0-0.4,0-0.7c-1.4,0-2.7,0.1-4.1,0.1c0,0.2,0,0.3,0,0.5C21,38.2,22.3,38.2,23.7,38.2z"/>
</g>
</svg>
