<?xml version="1.0" encoding="utf-8"?>
<!-- Generator: Adobe Illustrator 23.0.4, SVG Export Plug-In . SVG Version: 6.00 Build 0)  -->
<svg version="1.1" id="Layer_1" xmlns="http://www.w3.org/2000/svg" xmlns:xlink="http://www.w3.org/1999/xlink" x="0px" y="0px"
	 width="144px" height="144px" viewBox="0 0 144 144" style="enable-background:new 0 0 144 144;" xml:space="preserve">
<g>
	<path d="M10.6,38.1c0.2-1.4,0.4-2.8,0.6-4.2c0.7-5,2.6-9.6,5.5-13.8c1.9-2.8,4.4-5.1,6.9-7.2c3.7-3.1,9.2-2.9,12.8,0.6
		c4,3.9,7.9,7.8,11.8,11.8c2.3,2.3,4.5,4.5,6.8,6.8c4,4,4.3,9.7,0.5,14c-2.4,2.7-5.1,5.2-7.6,7.7c-0.7,0.7-1.5,1.3-2.3,2
		c4.3,8.1,9,15.6,15,22.2c9.3,10.1,18.2,15.5,27.7,20.5c2.1-2.1,4.2-4.3,6.4-6.4c1.1-1.1,2.1-2.2,3.3-3.2c3.3-3.1,7.6-3.8,11.6-1.6
		c1.5,0.8,2.8,2.2,4.1,3.5c5.6,5.6,11.2,11.2,16.8,16.7c1.6,1.6,2.4,3.5,3,5.6c0,0.9,0,1.8,0,2.7c-0.5,1.2-0.7,2.6-1.5,3.7
		c-2.3,3.4-5.2,6.2-8.6,8.4c-6.2,4.2-13,6-20.5,5.2c-8-0.9-15.6-3.3-23-6.6c-5.7-2.6-11.2-5.8-16.4-9.4c-6.5-4.5-12.6-9.6-18.2-15.1
		C39.8,96.5,34.5,91,29.7,85c-5.5-6.8-10.5-13.9-14.1-21.9c-2.1-4.6-3.6-9.4-4.3-14.5c-0.2-1.4-0.4-2.8-0.6-4.3
		C10.6,42.3,10.6,40.2,10.6,38.1z"/>
</g>
</svg>
